<svg width="281" height="60" viewBox="0 0 281 60" fill="none" xmlns="http://www.w3.org/2000/svg">
<rect x="0.5" y="0.5" width="280" height="59" rx="11.5" stroke="#9E9E9E"/>
<path fill-rule="evenodd" clip-rule="evenodd" d="M35.1389 17.5092C34.3154 17.4182 33.5741 18.0119 33.483 18.8353C33.3921 19.6587 33.9858 20.4 34.8092 20.491C40.3686 21.1056 44.8685 25.6055 45.483 31.1649C45.5741 31.9884 46.3154 32.5821 47.1389 32.4911C47.9622 32.4 48.5559 31.6587 48.4649 30.8353C47.696 23.88 42.0942 18.2781 35.1389 17.5092ZM35.3478 25.0475C34.5456 24.841 33.7278 25.324 33.5213 26.1262C33.3149 26.9285 33.7979 27.7463 34.6001 27.9528C36.1793 28.3592 37.6149 29.7949 38.0213 31.374C38.2278 32.1764 39.0456 32.6592 39.8478 32.4528C40.6502 32.2463 41.1332 31.4285 40.9266 30.6262C40.2477 27.9886 37.9856 25.7264 35.3478 25.0475ZM23.7457 20.1901C22.8299 18.3586 20.389 17.9625 18.9411 19.4104L16.7913 21.5602C15.9574 22.3941 15.4446 23.5595 15.5048 24.8141C16.1701 38.6804 27.2925 49.8027 41.1588 50.468C42.4133 50.5283 43.5788 50.0154 44.4126 49.1814L46.5624 47.0318C48.0104 45.5838 47.6142 43.1429 45.7827 42.2271L39.6111 39.1413C38.4561 38.5638 37.0613 38.7902 36.1482 39.7034L31.1733 44.6783C26.983 42.4377 23.5351 38.9898 21.2946 34.7996L26.2695 29.8246C27.1826 28.9116 27.4089 27.5166 26.8314 26.3617L23.7457 20.1901Z" fill="#3A643C"/>
<path d="M84.448 25L88.56 13.8H90.304L94.416 25H92.704L89.424 15.72L86.128 25H84.448ZM86.304 22.232L86.752 20.952H92.016L92.464 22.232H86.304ZM98.541 25C98.029 25 97.5863 24.92 97.213 24.76C96.8397 24.6 96.5517 24.3333 96.349 23.96C96.1463 23.5867 96.045 23.08 96.045 22.44V18.296H94.653V16.936H96.045L96.237 14.92H97.645V16.936H99.933V18.296H97.645V22.456C97.645 22.9147 97.741 23.2293 97.933 23.4C98.125 23.56 98.4557 23.64 98.925 23.64H99.853V25H98.541ZM105.025 25C104.513 25 104.071 24.92 103.697 24.76C103.324 24.6 103.036 24.3333 102.833 23.96C102.631 23.5867 102.529 23.08 102.529 22.44V18.296H101.137V16.936H102.529L102.721 14.92H104.129V16.936H106.417V18.296H104.129V22.456C104.129 22.9147 104.225 23.2293 104.417 23.4C104.609 23.56 104.94 23.64 105.409 23.64H106.337V25H105.025ZM108.182 25V16.936H109.622L109.766 18.456C109.947 18.0933 110.182 17.7893 110.47 17.544C110.758 17.288 111.094 17.0907 111.478 16.952C111.872 16.8133 112.32 16.744 112.822 16.744V18.44H112.246C111.915 18.44 111.6 18.4827 111.302 18.568C111.003 18.6427 110.736 18.776 110.502 18.968C110.278 19.16 110.102 19.4213 109.974 19.752C109.846 20.0827 109.782 20.4933 109.782 20.984V25H108.182ZM116.963 25.192C116.302 25.192 115.752 25.08 115.315 24.856C114.878 24.632 114.552 24.3333 114.339 23.96C114.126 23.576 114.019 23.1653 114.019 22.728C114.019 22.1947 114.158 21.7413 114.435 21.368C114.712 20.984 115.107 20.6907 115.619 20.488C116.131 20.2853 116.744 20.184 117.459 20.184H119.555C119.555 19.7147 119.486 19.3253 119.347 19.016C119.208 18.7067 119 18.4773 118.723 18.328C118.456 18.168 118.115 18.088 117.699 18.088C117.219 18.088 116.808 18.2053 116.467 18.44C116.126 18.664 115.912 19 115.827 19.448H114.227C114.291 18.8827 114.483 18.4027 114.803 18.008C115.134 17.6027 115.555 17.2933 116.067 17.08C116.579 16.856 117.123 16.744 117.699 16.744C118.456 16.744 119.091 16.8773 119.603 17.144C120.115 17.4107 120.499 17.7893 120.755 18.28C121.022 18.76 121.155 19.336 121.155 20.008V25H119.763L119.635 23.64C119.518 23.8533 119.379 24.056 119.219 24.248C119.059 24.44 118.867 24.6053 118.643 24.744C118.43 24.8827 118.179 24.9893 117.891 25.064C117.614 25.1493 117.304 25.192 116.963 25.192ZM117.267 23.896C117.608 23.896 117.918 23.8267 118.195 23.688C118.472 23.5493 118.707 23.3627 118.899 23.128C119.102 22.8827 119.251 22.6107 119.347 22.312C119.454 22.0027 119.512 21.688 119.523 21.368V21.32H117.619C117.16 21.32 116.787 21.3787 116.499 21.496C116.222 21.6027 116.019 21.752 115.891 21.944C115.763 22.136 115.699 22.36 115.699 22.616C115.699 22.8827 115.758 23.112 115.875 23.304C116.003 23.4853 116.184 23.6293 116.419 23.736C116.654 23.8427 116.936 23.896 117.267 23.896ZM126.925 25.192C126.147 25.192 125.453 25.016 124.845 24.664C124.237 24.3013 123.757 23.8053 123.405 23.176C123.064 22.5467 122.893 21.816 122.893 20.984C122.893 20.1413 123.064 19.4053 123.405 18.776C123.757 18.136 124.237 17.64 124.845 17.288C125.453 16.9253 126.147 16.744 126.925 16.744C127.907 16.744 128.728 17 129.389 17.512C130.051 18.024 130.472 18.7173 130.653 19.592H128.989C128.883 19.1227 128.637 18.76 128.253 18.504C127.88 18.248 127.432 18.12 126.909 18.12C126.483 18.12 126.088 18.232 125.725 18.456C125.363 18.6693 125.069 18.9893 124.845 19.416C124.632 19.832 124.525 20.3493 124.525 20.968C124.525 21.4267 124.589 21.8373 124.717 22.2C124.845 22.552 125.016 22.8507 125.229 23.096C125.453 23.3413 125.709 23.528 125.997 23.656C126.285 23.7733 126.589 23.832 126.909 23.832C127.261 23.832 127.576 23.7787 127.853 23.672C128.141 23.5547 128.381 23.384 128.573 23.16C128.776 22.936 128.915 22.6693 128.989 22.36H130.653C130.472 23.2133 130.051 23.9013 129.389 24.424C128.728 24.936 127.907 25.192 126.925 25.192ZM135.682 25C135.17 25 134.727 24.92 134.354 24.76C133.98 24.6 133.692 24.3333 133.49 23.96C133.287 23.5867 133.186 23.08 133.186 22.44V18.296H131.794V16.936H133.186L133.378 14.92H134.786V16.936H137.074V18.296H134.786V22.456C134.786 22.9147 134.882 23.2293 135.074 23.4C135.266 23.56 135.596 23.64 136.066 23.64H136.994V25H135.682ZM143.012 25V13.8H146.836C147.732 13.8 148.468 13.9493 149.044 14.248C149.62 14.5467 150.046 14.9467 150.324 15.448C150.601 15.9493 150.74 16.52 150.74 17.16C150.74 17.768 150.601 18.328 150.324 18.84C150.057 19.3413 149.636 19.7467 149.06 20.056C148.484 20.3547 147.742 20.504 146.836 20.504H144.612V25H143.012ZM144.612 19.176H146.772C147.614 19.176 148.212 18.9947 148.564 18.632C148.926 18.2587 149.108 17.768 149.108 17.16C149.108 16.5093 148.926 16.008 148.564 15.656C148.212 15.304 147.614 15.128 146.772 15.128H144.612V19.176ZM154.635 25.192C153.974 25.192 153.424 25.08 152.987 24.856C152.55 24.632 152.224 24.3333 152.011 23.96C151.798 23.576 151.691 23.1653 151.691 22.728C151.691 22.1947 151.83 21.7413 152.107 21.368C152.384 20.984 152.779 20.6907 153.291 20.488C153.803 20.2853 154.416 20.184 155.131 20.184H157.227C157.227 19.7147 157.158 19.3253 157.019 19.016C156.88 18.7067 156.672 18.4773 156.395 18.328C156.128 18.168 155.787 18.088 155.371 18.088C154.891 18.088 154.48 18.2053 154.139 18.44C153.798 18.664 153.584 19 153.499 19.448H151.899C151.963 18.8827 152.155 18.4027 152.475 18.008C152.806 17.6027 153.227 17.2933 153.739 17.08C154.251 16.856 154.795 16.744 155.371 16.744C156.128 16.744 156.763 16.8773 157.275 17.144C157.787 17.4107 158.171 17.7893 158.427 18.28C158.694 18.76 158.827 19.336 158.827 20.008V25H157.435L157.307 23.64C157.19 23.8533 157.051 24.056 156.891 24.248C156.731 24.44 156.539 24.6053 156.315 24.744C156.102 24.8827 155.851 24.9893 155.563 25.064C155.286 25.1493 154.976 25.192 154.635 25.192ZM154.939 23.896C155.28 23.896 155.59 23.8267 155.867 23.688C156.144 23.5493 156.379 23.3627 156.571 23.128C156.774 22.8827 156.923 22.6107 157.019 22.312C157.126 22.0027 157.184 21.688 157.195 21.368V21.32H155.291C154.832 21.32 154.459 21.3787 154.171 21.496C153.894 21.6027 153.691 21.752 153.563 21.944C153.435 22.136 153.371 22.36 153.371 22.616C153.371 22.8827 153.43 23.112 153.547 23.304C153.675 23.4853 153.856 23.6293 154.091 23.736C154.326 23.8427 154.608 23.896 154.939 23.896ZM164.025 25C163.513 25 163.071 24.92 162.697 24.76C162.324 24.6 162.036 24.3333 161.833 23.96C161.631 23.5867 161.529 23.08 161.529 22.44V18.296H160.137V16.936H161.529L161.721 14.92H163.129V16.936H165.417V18.296H163.129V22.456C163.129 22.9147 163.225 23.2293 163.417 23.4C163.609 23.56 163.94 23.64 164.409 23.64H165.337V25H164.025ZM167.294 25V16.936H168.894V25H167.294ZM168.11 15.416C167.8 15.416 167.544 15.32 167.342 15.128C167.15 14.936 167.054 14.6907 167.054 14.392C167.054 14.104 167.15 13.8693 167.342 13.688C167.544 13.496 167.8 13.4 168.11 13.4C168.408 13.4 168.659 13.496 168.862 13.688C169.064 13.8693 169.166 14.104 169.166 14.392C169.166 14.6907 169.064 14.936 168.862 15.128C168.659 15.32 168.408 15.416 168.11 15.416ZM174.83 25.192C174.062 25.192 173.379 25.016 172.782 24.664C172.184 24.312 171.715 23.8213 171.374 23.192C171.043 22.5627 170.878 21.832 170.878 21C170.878 20.1467 171.043 19.4053 171.374 18.776C171.715 18.136 172.184 17.64 172.782 17.288C173.379 16.9253 174.072 16.744 174.862 16.744C175.651 16.744 176.328 16.92 176.894 17.272C177.459 17.624 177.896 18.0933 178.206 18.68C178.515 19.256 178.67 19.896 178.67 20.6C178.67 20.7067 178.664 20.824 178.654 20.952C178.654 21.0693 178.648 21.2027 178.638 21.352H172.046V20.216H177.07C177.038 19.544 176.814 19.0213 176.398 18.648C175.982 18.264 175.464 18.072 174.846 18.072C174.408 18.072 174.008 18.1733 173.646 18.376C173.283 18.568 172.99 18.856 172.766 19.24C172.552 19.6133 172.446 20.088 172.446 20.664V21.112C172.446 21.7093 172.552 22.216 172.766 22.632C172.99 23.0373 173.283 23.3467 173.646 23.56C174.008 23.7627 174.403 23.864 174.83 23.864C175.342 23.864 175.763 23.752 176.094 23.528C176.424 23.304 176.67 23 176.83 22.616H178.43C178.291 23.1067 178.056 23.5493 177.726 23.944C177.395 24.328 176.984 24.632 176.494 24.856C176.014 25.08 175.459 25.192 174.83 25.192ZM180.447 25V16.936H181.887L181.983 18.312C182.239 17.832 182.602 17.4533 183.071 17.176C183.541 16.888 184.079 16.744 184.687 16.744C185.327 16.744 185.877 16.872 186.335 17.128C186.794 17.384 187.151 17.7733 187.407 18.296C187.663 18.808 187.791 19.4533 187.791 20.232V25H186.191V20.392C186.191 19.6453 186.026 19.08 185.695 18.696C185.365 18.312 184.885 18.12 184.255 18.12C183.839 18.12 183.466 18.2213 183.135 18.424C182.805 18.616 182.538 18.904 182.335 19.288C182.143 19.672 182.047 20.1413 182.047 20.696V25H180.447ZM193.166 25C192.654 25 192.211 24.92 191.838 24.76C191.465 24.6 191.177 24.3333 190.974 23.96C190.771 23.5867 190.67 23.08 190.67 22.44V18.296H189.278V16.936H190.67L190.862 14.92H192.27V16.936H194.558V18.296H192.27V22.456C192.27 22.9147 192.366 23.2293 192.558 23.4C192.75 23.56 193.081 23.64 193.55 23.64H194.478V25H193.166ZM199.442 25.192C198.76 25.192 198.162 25.08 197.65 24.856C197.138 24.632 196.733 24.3173 196.434 23.912C196.136 23.5067 195.954 23.032 195.89 22.488H197.522C197.576 22.744 197.677 22.9787 197.826 23.192C197.986 23.4053 198.2 23.576 198.466 23.704C198.744 23.832 199.069 23.896 199.442 23.896C199.794 23.896 200.082 23.848 200.306 23.752C200.541 23.6453 200.712 23.5067 200.818 23.336C200.925 23.1547 200.978 22.9627 200.978 22.76C200.978 22.4613 200.904 22.2373 200.754 22.088C200.616 21.928 200.402 21.8053 200.114 21.72C199.837 21.624 199.501 21.5387 199.106 21.464C198.733 21.4 198.37 21.3147 198.018 21.208C197.677 21.0907 197.368 20.9467 197.09 20.776C196.824 20.6053 196.61 20.392 196.45 20.136C196.29 19.8693 196.21 19.544 196.21 19.16C196.21 18.7013 196.333 18.2907 196.578 17.928C196.824 17.5547 197.17 17.2667 197.618 17.064C198.077 16.8507 198.616 16.744 199.234 16.744C200.13 16.744 200.85 16.9573 201.394 17.384C201.938 17.8107 202.258 18.4133 202.354 19.192H200.802C200.76 18.8293 200.6 18.552 200.322 18.36C200.045 18.1573 199.677 18.056 199.218 18.056C198.76 18.056 198.408 18.1467 198.162 18.328C197.917 18.5093 197.794 18.7493 197.794 19.048C197.794 19.24 197.864 19.4107 198.002 19.56C198.141 19.7093 198.344 19.8373 198.61 19.944C198.888 20.04 199.224 20.1307 199.618 20.216C200.184 20.3227 200.69 20.456 201.138 20.616C201.586 20.776 201.944 21.0107 202.21 21.32C202.477 21.6293 202.61 22.072 202.61 22.648C202.621 23.1493 202.493 23.592 202.226 23.976C201.97 24.36 201.602 24.6587 201.122 24.872C200.653 25.0853 200.093 25.192 199.442 25.192ZM210.22 25L207.852 16.936H209.436L211.196 23.656L210.892 23.64L212.844 16.936H214.636L216.588 23.64L216.284 23.656L218.028 16.936H219.644L217.276 25H215.628L213.58 18.008H213.9L211.852 25H210.22ZM221.2 25V16.936H222.8V25H221.2ZM222.016 15.416C221.707 15.416 221.451 15.32 221.248 15.128C221.056 14.936 220.96 14.6907 220.96 14.392C220.96 14.104 221.056 13.8693 221.248 13.688C221.451 13.496 221.707 13.4 222.016 13.4C222.315 13.4 222.565 13.496 222.768 13.688C222.971 13.8693 223.072 14.104 223.072 14.392C223.072 14.6907 222.971 14.936 222.768 15.128C222.565 15.32 222.315 15.416 222.016 15.416ZM228.416 25C227.904 25 227.461 24.92 227.088 24.76C226.715 24.6 226.427 24.3333 226.224 23.96C226.021 23.5867 225.92 23.08 225.92 22.44V18.296H224.528V16.936H225.92L226.112 14.92H227.52V16.936H229.808V18.296H227.52V22.456C227.52 22.9147 227.616 23.2293 227.808 23.4C228 23.56 228.331 23.64 228.8 23.64H229.728V25H228.416ZM231.572 25V13.48H233.172V18.248C233.439 17.7787 233.807 17.4107 234.276 17.144C234.756 16.8773 235.284 16.744 235.86 16.744C236.5 16.744 237.05 16.8773 237.508 17.144C237.967 17.4 238.319 17.7893 238.564 18.312C238.81 18.824 238.932 19.4693 238.932 20.248V25H237.348V20.408C237.348 19.6613 237.188 19.096 236.868 18.712C236.548 18.3173 236.074 18.12 235.444 18.12C235.018 18.12 234.634 18.2213 234.292 18.424C233.951 18.6267 233.679 18.9253 233.476 19.32C233.274 19.704 233.172 20.1733 233.172 20.728V25H231.572ZM89.024 46.192C88.2347 46.192 87.5573 46.0533 86.992 45.776C86.4267 45.488 85.9787 45.104 85.648 44.624C85.3173 44.1333 85.1147 43.584 85.04 42.976H86.608C86.7147 43.52 86.9813 43.968 87.408 44.32C87.8347 44.6613 88.3733 44.832 89.024 44.832C89.5147 44.832 89.936 44.7147 90.288 44.48C90.64 44.2453 90.912 43.9307 91.104 43.536C91.296 43.1413 91.392 42.704 91.392 42.224C91.392 41.712 91.2907 41.2693 91.088 40.896C90.896 40.512 90.624 40.2133 90.272 40C89.9307 39.7867 89.5307 39.68 89.072 39.68C88.5173 39.68 88.0373 39.808 87.632 40.064C87.2373 40.3093 86.9493 40.624 86.768 41.008H85.216L86.144 34.8H92.176V36.192H87.376L86.784 39.328C87.04 39.04 87.3813 38.8053 87.808 38.624C88.2453 38.4427 88.7413 38.352 89.296 38.352C89.8613 38.352 90.368 38.4533 90.816 38.656C91.264 38.848 91.6427 39.12 91.952 39.472C92.272 39.824 92.512 40.2347 92.672 40.704C92.8427 41.1733 92.928 41.6693 92.928 42.192C92.928 42.7573 92.8373 43.28 92.656 43.76C92.4747 44.24 92.2133 44.6667 91.872 45.04C91.5413 45.4027 91.1307 45.6853 90.64 45.888C90.16 46.0907 89.6213 46.192 89.024 46.192ZM95.0121 41.952V40.608H101.476V41.952H95.0121ZM103.824 46V34.8H105.712L109.504 42.368L113.28 34.8H115.184V46H113.584V37.6L110.112 44.432H108.88L105.424 37.616V46H103.824ZM117.544 46V37.936H119.144V46H117.544ZM118.36 36.416C118.05 36.416 117.794 36.32 117.592 36.128C117.4 35.936 117.304 35.6907 117.304 35.392C117.304 35.104 117.4 34.8693 117.592 34.688C117.794 34.496 118.05 34.4 118.36 34.4C118.658 34.4 118.909 34.496 119.112 34.688C119.314 34.8693 119.416 35.104 119.416 35.392C119.416 35.6907 119.314 35.936 119.112 36.128C118.909 36.32 118.658 36.416 118.36 36.416ZM121.432 46V37.936H122.872L122.968 39.312C123.224 38.832 123.586 38.4533 124.056 38.176C124.525 37.888 125.064 37.744 125.672 37.744C126.312 37.744 126.861 37.872 127.32 38.128C127.778 38.384 128.136 38.7733 128.392 39.296C128.648 39.808 128.776 40.4533 128.776 41.232V46H127.176V41.392C127.176 40.6453 127.01 40.08 126.68 39.696C126.349 39.312 125.869 39.12 125.24 39.12C124.824 39.12 124.45 39.2213 124.12 39.424C123.789 39.616 123.522 39.904 123.32 40.288C123.128 40.672 123.032 41.1413 123.032 41.696V46H121.432ZM133.782 46.192C133.153 46.192 132.604 46.064 132.134 45.808C131.676 45.552 131.318 45.168 131.062 44.656C130.817 44.144 130.694 43.4987 130.694 42.72V37.936H132.294V42.544C132.294 43.3013 132.46 43.872 132.79 44.256C133.121 44.64 133.596 44.832 134.214 44.832C134.63 44.832 135.004 44.7307 135.334 44.528C135.676 44.3253 135.942 44.032 136.134 43.648C136.326 43.264 136.422 42.7947 136.422 42.24V37.936H138.022V46H136.598L136.486 44.624C136.241 45.1147 135.884 45.4987 135.414 45.776C134.945 46.0533 134.401 46.192 133.782 46.192ZM143.541 46C143.029 46 142.586 45.92 142.213 45.76C141.84 45.6 141.552 45.3333 141.349 44.96C141.146 44.5867 141.045 44.08 141.045 43.44V39.296H139.653V37.936H141.045L141.237 35.92H142.645V37.936H144.933V39.296H142.645V43.456C142.645 43.9147 142.741 44.2293 142.933 44.4C143.125 44.56 143.456 44.64 143.925 44.64H144.853V46H143.541ZM150.127 46.192C149.359 46.192 148.676 46.016 148.079 45.664C147.481 45.312 147.012 44.8213 146.671 44.192C146.34 43.5627 146.175 42.832 146.175 42C146.175 41.1467 146.34 40.4053 146.671 39.776C147.012 39.136 147.481 38.64 148.079 38.288C148.676 37.9253 149.369 37.744 150.159 37.744C150.948 37.744 151.625 37.92 152.191 38.272C152.756 38.624 153.193 39.0933 153.503 39.68C153.812 40.256 153.967 40.896 153.967 41.6C153.967 41.7067 153.961 41.824 153.951 41.952C153.951 42.0693 153.945 42.2027 153.935 42.352H147.343V41.216H152.367C152.335 40.544 152.111 40.0213 151.695 39.648C151.279 39.264 150.761 39.072 150.143 39.072C149.705 39.072 149.305 39.1733 148.943 39.376C148.58 39.568 148.287 39.856 148.063 40.24C147.849 40.6133 147.743 41.088 147.743 41.664V42.112C147.743 42.7093 147.849 43.216 148.063 43.632C148.287 44.0373 148.58 44.3467 148.943 44.56C149.305 44.7627 149.7 44.864 150.127 44.864C150.639 44.864 151.06 44.752 151.391 44.528C151.721 44.304 151.967 44 152.127 43.616H153.727C153.588 44.1067 153.353 44.5493 153.023 44.944C152.692 45.328 152.281 45.632 151.791 45.856C151.311 46.08 150.756 46.192 150.127 46.192ZM159.918 46V34.8H166.878V36.112H161.518V39.744H165.998V41.024H161.518V46H159.918ZM168.51 46V37.936H169.95L170.094 39.456C170.275 39.0933 170.51 38.7893 170.798 38.544C171.086 38.288 171.422 38.0907 171.806 37.952C172.201 37.8133 172.649 37.744 173.15 37.744V39.44H172.574C172.243 39.44 171.929 39.4827 171.63 39.568C171.331 39.6427 171.065 39.776 170.83 39.968C170.606 40.16 170.43 40.4213 170.302 40.752C170.174 41.0827 170.11 41.4933 170.11 41.984V46H168.51ZM178.033 46.192C177.265 46.192 176.582 46.016 175.985 45.664C175.388 45.312 174.918 44.8213 174.577 44.192C174.246 43.5627 174.081 42.832 174.081 42C174.081 41.1467 174.246 40.4053 174.577 39.776C174.918 39.136 175.388 38.64 175.985 38.288C176.582 37.9253 177.276 37.744 178.065 37.744C178.854 37.744 179.532 37.92 180.097 38.272C180.662 38.624 181.1 39.0933 181.409 39.68C181.718 40.256 181.873 40.896 181.873 41.6C181.873 41.7067 181.868 41.824 181.857 41.952C181.857 42.0693 181.852 42.2027 181.841 42.352H175.249V41.216H180.273C180.241 40.544 180.017 40.0213 179.601 39.648C179.185 39.264 178.668 39.072 178.049 39.072C177.612 39.072 177.212 39.1733 176.849 39.376C176.486 39.568 176.193 39.856 175.969 40.24C175.756 40.6133 175.649 41.088 175.649 41.664V42.112C175.649 42.7093 175.756 43.216 175.969 43.632C176.193 44.0373 176.486 44.3467 176.849 44.56C177.212 44.7627 177.606 44.864 178.033 44.864C178.545 44.864 178.966 44.752 179.297 44.528C179.628 44.304 179.873 44 180.033 43.616H181.633C181.494 44.1067 181.26 44.5493 180.929 44.944C180.598 45.328 180.188 45.632 179.697 45.856C179.217 46.08 178.662 46.192 178.033 46.192ZM187.299 46.192C186.531 46.192 185.848 46.016 185.251 45.664C184.653 45.312 184.184 44.8213 183.843 44.192C183.512 43.5627 183.347 42.832 183.347 42C183.347 41.1467 183.512 40.4053 183.843 39.776C184.184 39.136 184.653 38.64 185.251 38.288C185.848 37.9253 186.541 37.744 187.331 37.744C188.12 37.744 188.797 37.92 189.363 38.272C189.928 38.624 190.365 39.0933 190.675 39.68C190.984 40.256 191.139 40.896 191.139 41.6C191.139 41.7067 191.133 41.824 191.123 41.952C191.123 42.0693 191.117 42.2027 191.107 42.352H184.515V41.216H189.539C189.507 40.544 189.283 40.0213 188.867 39.648C188.451 39.264 187.933 39.072 187.315 39.072C186.877 39.072 186.477 39.1733 186.115 39.376C185.752 39.568 185.459 39.856 185.235 40.24C185.021 40.6133 184.914 41.088 184.914 41.664V42.112C184.914 42.7093 185.021 43.216 185.235 43.632C185.459 44.0373 185.752 44.3467 186.115 44.56C186.477 44.7627 186.872 44.864 187.299 44.864C187.811 44.864 188.232 44.752 188.563 44.528C188.893 44.304 189.139 44 189.299 43.616H190.899C190.76 44.1067 190.525 44.5493 190.195 44.944C189.864 45.328 189.453 45.632 188.963 45.856C188.483 46.08 187.928 46.192 187.299 46.192ZM202.002 46.192C200.903 46.192 199.954 45.952 199.154 45.472C198.365 44.9813 197.751 44.304 197.314 43.44C196.887 42.5653 196.674 41.552 196.674 40.4C196.674 39.2587 196.887 38.2507 197.314 37.376C197.751 36.5013 198.365 35.824 199.154 35.344C199.954 34.8533 200.903 34.608 202.002 34.608C203.314 34.608 204.375 34.9227 205.186 35.552C206.007 36.1813 206.53 37.0667 206.754 38.208H204.994C204.834 37.5467 204.503 37.0187 204.002 36.624C203.511 36.2293 202.845 36.032 202.002 36.032C201.245 36.032 200.589 36.208 200.034 36.56C199.479 36.912 199.053 37.4133 198.754 38.064C198.455 38.7147 198.306 39.4933 198.306 40.4C198.306 41.3067 198.455 42.0907 198.754 42.752C199.053 43.4027 199.479 43.904 200.034 44.256C200.589 44.5973 201.245 44.768 202.002 44.768C202.845 44.768 203.511 44.5813 204.002 44.208C204.503 43.824 204.834 43.3067 204.994 42.656H206.754C206.53 43.7653 206.007 44.6347 205.186 45.264C204.375 45.8827 203.314 46.192 202.002 46.192ZM211.26 46.192C210.599 46.192 210.049 46.08 209.612 45.856C209.175 45.632 208.849 45.3333 208.636 44.96C208.423 44.576 208.316 44.1653 208.316 43.728C208.316 43.1947 208.455 42.7413 208.732 42.368C209.009 41.984 209.404 41.6907 209.916 41.488C210.428 41.2853 211.041 41.184 211.756 41.184H213.852C213.852 40.7147 213.783 40.3253 213.644 40.016C213.505 39.7067 213.297 39.4773 213.02 39.328C212.753 39.168 212.412 39.088 211.996 39.088C211.516 39.088 211.105 39.2053 210.764 39.44C210.423 39.664 210.209 40 210.124 40.448H208.524C208.588 39.8827 208.78 39.4027 209.1 39.008C209.431 38.6027 209.852 38.2933 210.364 38.08C210.876 37.856 211.42 37.744 211.996 37.744C212.753 37.744 213.388 37.8773 213.9 38.144C214.412 38.4107 214.796 38.7893 215.052 39.28C215.319 39.76 215.452 40.336 215.452 41.008V46H214.06L213.932 44.64C213.815 44.8533 213.676 45.056 213.516 45.248C213.356 45.44 213.164 45.6053 212.94 45.744C212.727 45.8827 212.476 45.9893 212.188 46.064C211.911 46.1493 211.601 46.192 211.26 46.192ZM211.564 44.896C211.905 44.896 212.215 44.8267 212.492 44.688C212.769 44.5493 213.004 44.3627 213.196 44.128C213.399 43.8827 213.548 43.6107 213.644 43.312C213.751 43.0027 213.809 42.688 213.82 42.368V42.32H211.916C211.457 42.32 211.084 42.3787 210.796 42.496C210.519 42.6027 210.316 42.752 210.188 42.944C210.06 43.136 209.996 43.36 209.996 43.616C209.996 43.8827 210.055 44.112 210.172 44.304C210.3 44.4853 210.481 44.6293 210.716 44.736C210.951 44.8427 211.233 44.896 211.564 44.896ZM217.494 46V34.48H219.094V46H217.494ZM221.291 46V34.48H222.891V46H221.291Z" fill="#33643F"/>
</svg>
