<svg width="280" height="58" viewBox="0 0 280 58" fill="none" xmlns="http://www.w3.org/2000/svg">
<rect x="0.5" y="0.5" width="278.348" height="57" rx="11.5" stroke="#9E9E9E"/>
<path d="M24.2227 41.0705L21.1329 42.6154L27.3126 44.9328H32.7199L35.8097 43.3879L38.1271 41.843L41.9895 37.2081L42.7619 35.6632L43.5344 33.3457L44.3069 31.0283L41.9895 31.8008H38.8996H35.0373L31.1749 31.0283L27.3126 32.5733L24.9952 34.1182L24.2227 36.4356L23.4503 39.5255L24.2227 41.0705Z" fill="#3A643B"/>
<path d="M32.7204 23.3034L29.6305 24.8483L35.8103 27.1658H41.2175L44.3074 25.6208L46.6248 24.0759L50.4871 19.441L51.2596 17.8961L52.0321 15.5787L52.8045 13.2612L50.4871 14.0337H47.3973H43.5349L39.6726 13.2612L35.8103 14.8062L33.4929 16.3511L32.7204 18.6685L31.9479 21.7584L32.7204 23.3034Z" fill="#3A643B"/>
<path d="M8.77175 29.4807C10.6257 20.211 17.2689 17.8936 20.3587 17.1211L19.5863 20.211C19.8438 20.211 20.8222 20.9835 22.6761 24.0734C24.5301 27.1632 22.4187 30.5106 21.1312 31.7981L18.0413 34.888L15.724 37.2054L13.4066 39.5228L11.8616 42.6127C9.38972 37.6689 8.77175 31.7981 8.77175 29.4807Z" fill="#3A643B"/>
<path d="M22.7537 40.3892C20.7751 41.4997 19.0952 43.0733 17.8581 44.9753C17.7982 45.0725 17.7582 45.1806 17.7405 45.2934C17.7228 45.4062 17.7278 45.5214 17.7551 45.6322C17.7824 45.7431 17.8315 45.8474 17.8995 45.9391C17.9676 46.0308 18.0532 46.108 18.1514 46.1662C18.2496 46.2245 18.3584 46.2626 18.4715 46.2783C18.5846 46.294 18.6997 46.2871 18.8101 46.2579C18.9204 46.2287 19.0239 46.1778 19.1144 46.1081C19.2048 46.0385 19.2806 45.9516 19.3371 45.8524C19.8525 45.0202 20.488 44.2687 21.2231 43.6224C24.0435 45.3422 26.7894 46.2078 29.432 46.2078C30.799 46.208 32.156 45.9753 33.4448 45.5199C41.6882 42.6536 45.6207 31.6413 45.7812 31.1885C45.8554 30.9936 45.8607 30.7793 45.796 30.581C45.7313 30.3828 45.6006 30.2128 45.4257 30.0993C45.2644 29.9983 45.0723 29.9583 44.884 29.9867C44.6958 30.0151 44.524 30.1099 44.3996 30.2541C44.1245 30.4088 41.8315 31.4866 32.9977 30.6955C29.6327 30.3916 27.0187 31.1139 25.2358 32.8337C23.453 34.5535 22.6677 37.0701 22.7537 40.3892ZM32.8372 32.4439C38.4779 32.9484 41.6595 32.7248 43.4366 32.3694C42.0206 35.4764 38.4779 41.9542 32.8601 43.909C29.7015 45.0555 26.2734 44.5625 22.6677 42.516C26.2333 40.0166 31.4442 38.3312 35.7607 37.8612C35.8737 37.8491 35.9831 37.815 36.0828 37.7606C36.1825 37.7063 36.2706 37.6328 36.3419 37.5445C36.4132 37.4561 36.4665 37.3545 36.4985 37.2456C36.5306 37.1367 36.5409 37.0225 36.5289 36.9096C36.5168 36.7966 36.4827 36.6872 36.4283 36.5875C36.374 36.4878 36.3006 36.3997 36.2122 36.3284C36.1238 36.2571 36.0223 36.2038 35.9133 36.1718C35.8044 36.1397 35.6902 36.1294 35.5773 36.1414C31.715 36.607 27.959 37.7214 24.4677 39.4376C24.5479 37.0758 25.1957 35.2758 26.4225 34.0891C27.8327 32.7305 29.9881 32.1687 32.8372 32.4439ZM26.6976 27.8922C26.8909 27.9999 27.1184 28.0284 27.3322 27.9718C27.5461 27.9151 27.7296 27.7777 27.8441 27.5884C28.3577 26.7549 28.9935 26.0032 29.7301 25.3584C32.5448 27.0782 35.2964 27.9438 37.9391 27.9438C39.306 27.944 40.663 27.7114 41.9518 27.2559C50.1952 24.3552 54.122 13.3774 54.2882 12.9245C54.3625 12.7297 54.3677 12.5153 54.303 12.3171C54.2383 12.1189 54.1077 11.9489 53.9328 11.8353C53.7715 11.7343 53.5793 11.6944 53.3911 11.7228C53.2029 11.7512 53.031 11.846 52.9067 11.9901C52.6258 12.1449 50.3385 13.2226 41.5047 12.4315C38.134 12.1277 35.5257 12.85 33.7372 14.5698C31.9486 16.2895 31.1862 18.7775 31.2894 22.1253C29.3108 23.2357 27.6309 24.8094 26.3938 26.7113C26.3359 26.8087 26.2978 26.9166 26.2818 27.0288C26.2657 27.141 26.272 27.2552 26.3002 27.365C26.3284 27.4747 26.3781 27.5778 26.4463 27.6683C26.5145 27.7588 26.5999 27.8349 26.6976 27.8922ZM34.9582 15.8195C36.3684 14.4608 38.5238 13.8991 41.3729 14.1513C47.0137 14.6615 50.1952 14.4379 51.978 14.0825C50.5563 17.2067 47.0251 23.6788 41.4015 25.6565C38.2429 26.7457 34.8149 26.2699 31.1862 24.2234C34.7518 21.724 39.9627 20.0386 44.2792 19.5686C44.5073 19.5442 44.7164 19.4303 44.8604 19.2518C45.0045 19.0734 45.0717 18.845 45.0474 18.617C45.0231 18.3889 44.9092 18.1798 44.7307 18.0358C44.5522 17.8917 44.3239 17.8245 44.0958 17.8488C40.2342 18.3108 36.4782 19.4213 32.9862 21.1335C33.0837 18.7832 33.7314 16.966 34.9582 15.8195ZM11.6498 43.3358C11.7197 43.3375 11.7894 43.3278 11.8562 43.3071C12.0421 43.2662 12.2071 43.1597 12.3208 43.007C12.4345 42.8543 12.4894 42.6657 12.4753 42.4759C12.5613 42.1663 13.4211 39.7816 20.2256 34.1006C22.8225 31.9337 24.1581 29.5776 24.1983 27.0954C24.2384 24.6132 23.0518 22.2973 20.6212 20.0157C21.2288 17.823 21.2956 15.5156 20.8161 13.2914C20.7948 13.1754 20.75 13.0651 20.6843 12.9672C20.6186 12.8693 20.5335 12.7859 20.4342 12.7223C20.335 12.6587 20.2237 12.6162 20.1073 12.5974C19.9909 12.5786 19.8719 12.584 19.7577 12.6131C19.6434 12.6423 19.5364 12.6946 19.4433 12.7669C19.3501 12.8391 19.2728 12.9298 19.2162 13.0332C19.1595 13.1365 19.1247 13.2505 19.114 13.3679C19.1032 13.4853 19.1167 13.6036 19.1537 13.7156C19.3792 14.6669 19.4604 15.6466 19.3944 16.622C14.5619 17.7685 11.174 20.2163 9.40265 23.8852C5.63639 31.7617 10.6237 42.3039 10.8358 42.7625C10.9104 42.9168 11.0256 43.0479 11.169 43.1418C11.3124 43.2357 11.4785 43.2889 11.6498 43.2956V43.3358ZM10.9676 24.6247C12.418 21.6036 15.181 19.517 19.1766 18.4163C18.4256 22.7043 15.932 27.5884 13.209 30.9592C13.1382 31.0472 13.0854 31.1484 13.0537 31.2568C13.022 31.3653 13.012 31.4789 13.0243 31.5913C13.0365 31.7036 13.0708 31.8124 13.1251 31.9115C13.1794 32.0106 13.2528 32.098 13.3409 32.1687C13.4942 32.2905 13.684 32.3572 13.8797 32.3579C14.0104 32.3597 14.1397 32.3318 14.2579 32.2761C14.3761 32.2205 14.4801 32.1387 14.5619 32.0369C16.9629 28.979 18.8329 25.5393 20.0938 21.8616C21.7104 23.5814 22.5244 25.3011 22.49 27.0209C22.4556 28.9814 21.3435 30.9018 19.1365 32.7535C14.7912 36.3822 12.6931 38.7898 11.6842 40.2975C10.4689 37.0701 8.39373 29.9904 10.9676 24.6247Z" fill="#9DB29D"/>
<path d="M87.516 24V12.8H91.66C92.4387 12.8 93.0893 12.928 93.612 13.184C94.1347 13.4293 94.524 13.7707 94.78 14.208C95.0467 14.6347 95.18 15.12 95.18 15.664C95.18 16.2293 95.0573 16.704 94.812 17.088C94.5667 17.472 94.2413 17.7707 93.836 17.984C93.4413 18.1867 93.0147 18.304 92.556 18.336L92.78 18.176C93.2707 18.1867 93.7187 18.32 94.124 18.576C94.5293 18.8213 94.8493 19.152 95.084 19.568C95.3187 19.984 95.436 20.4427 95.436 20.944C95.436 21.52 95.2973 22.0427 95.02 22.512C94.7427 22.9707 94.332 23.3333 93.788 23.6C93.244 23.8667 92.5773 24 91.788 24H87.516ZM89.116 22.672H91.58C92.284 22.672 92.828 22.512 93.212 22.192C93.6067 21.8613 93.804 21.3973 93.804 20.8C93.804 20.2133 93.6013 19.744 93.196 19.392C92.8013 19.04 92.252 18.864 91.548 18.864H89.116V22.672ZM89.116 17.632H91.484C92.156 17.632 92.668 17.4773 93.02 17.168C93.372 16.848 93.548 16.4107 93.548 15.856C93.548 15.3227 93.372 14.9013 93.02 14.592C92.668 14.272 92.14 14.112 91.436 14.112H89.116V17.632ZM100.224 24.192C99.5948 24.192 99.0455 24.064 98.5761 23.808C98.1175 23.552 97.7601 23.168 97.5041 22.656C97.2588 22.144 97.1361 21.4987 97.1361 20.72V15.936H98.7361V20.544C98.7361 21.3013 98.9015 21.872 99.2321 22.256C99.5628 22.64 100.037 22.832 100.656 22.832C101.072 22.832 101.445 22.7307 101.776 22.528C102.117 22.3253 102.384 22.032 102.576 21.648C102.768 21.264 102.864 20.7947 102.864 20.24V15.936H104.464V24H103.04L102.928 22.624C102.683 23.1147 102.325 23.4987 101.856 23.776C101.387 24.0533 100.843 24.192 100.224 24.192ZM106.767 24V15.936H108.367V24H106.767ZM107.583 14.416C107.273 14.416 107.017 14.32 106.815 14.128C106.623 13.936 106.527 13.6907 106.527 13.392C106.527 13.104 106.623 12.8693 106.815 12.688C107.017 12.496 107.273 12.4 107.583 12.4C107.881 12.4 108.132 12.496 108.335 12.688C108.537 12.8693 108.639 13.104 108.639 13.392C108.639 13.6907 108.537 13.936 108.335 14.128C108.132 14.32 107.881 14.416 107.583 14.416ZM110.655 24V12.48H112.255V24H110.655ZM118.036 24.192C117.268 24.192 116.59 24.0107 116.004 23.648C115.417 23.2747 114.958 22.7733 114.628 22.144C114.308 21.504 114.148 20.7787 114.148 19.968C114.148 19.1467 114.308 18.4213 114.628 17.792C114.958 17.1627 115.417 16.6667 116.004 16.304C116.601 15.9307 117.284 15.744 118.052 15.744C118.681 15.744 119.236 15.872 119.716 16.128C120.196 16.3733 120.569 16.7253 120.836 17.184V12.48H122.436V24H120.996L120.836 22.752C120.676 22.9973 120.468 23.232 120.212 23.456C119.956 23.6693 119.646 23.8453 119.284 23.984C118.921 24.1227 118.505 24.192 118.036 24.192ZM118.292 22.8C118.793 22.8 119.236 22.6827 119.62 22.448C120.004 22.2133 120.297 21.8827 120.5 21.456C120.713 21.0293 120.82 20.5333 120.82 19.968C120.82 19.4027 120.713 18.912 120.5 18.496C120.297 18.0693 120.004 17.7387 119.62 17.504C119.236 17.2587 118.793 17.136 118.292 17.136C117.812 17.136 117.38 17.2587 116.996 17.504C116.612 17.7387 116.313 18.0693 116.1 18.496C115.886 18.912 115.78 19.4027 115.78 19.968C115.78 20.5333 115.886 21.0293 116.1 21.456C116.313 21.8827 116.612 22.2133 116.996 22.448C117.38 22.6827 117.812 22.8 118.292 22.8ZM131.405 24V14.112H128.093V12.8H136.333V14.112H133.005V24H131.405ZM137.014 24V15.936H138.454L138.598 17.456C138.779 17.0933 139.014 16.7893 139.302 16.544C139.59 16.288 139.926 16.0907 140.31 15.952C140.705 15.8133 141.153 15.744 141.654 15.744V17.44H141.078C140.747 17.44 140.433 17.4827 140.134 17.568C139.835 17.6427 139.569 17.776 139.334 17.968C139.11 18.16 138.934 18.4213 138.806 18.752C138.678 19.0827 138.614 19.4933 138.614 19.984V24H137.014ZM146.083 24.192C145.454 24.192 144.905 24.064 144.435 23.808C143.977 23.552 143.619 23.168 143.363 22.656C143.118 22.144 142.995 21.4987 142.995 20.72V15.936H144.595V20.544C144.595 21.3013 144.761 21.872 145.091 22.256C145.422 22.64 145.897 22.832 146.515 22.832C146.931 22.832 147.305 22.7307 147.635 22.528C147.977 22.3253 148.243 22.032 148.435 21.648C148.627 21.264 148.723 20.7947 148.723 20.24V15.936H150.323V24H148.899L148.787 22.624C148.542 23.1147 148.185 23.4987 147.715 23.776C147.246 24.0533 146.702 24.192 146.083 24.192ZM155.634 24.192C154.951 24.192 154.354 24.08 153.842 23.856C153.33 23.632 152.925 23.3173 152.626 22.912C152.327 22.5067 152.146 22.032 152.082 21.488H153.714C153.767 21.744 153.869 21.9787 154.018 22.192C154.178 22.4053 154.391 22.576 154.658 22.704C154.935 22.832 155.261 22.896 155.634 22.896C155.986 22.896 156.274 22.848 156.498 22.752C156.733 22.6453 156.903 22.5067 157.01 22.336C157.117 22.1547 157.17 21.9627 157.17 21.76C157.17 21.4613 157.095 21.2373 156.946 21.088C156.807 20.928 156.594 20.8053 156.306 20.72C156.029 20.624 155.693 20.5387 155.298 20.464C154.925 20.4 154.562 20.3147 154.21 20.208C153.869 20.0907 153.559 19.9467 153.282 19.776C153.015 19.6053 152.802 19.392 152.642 19.136C152.482 18.8693 152.402 18.544 152.402 18.16C152.402 17.7013 152.525 17.2907 152.77 16.928C153.015 16.5547 153.362 16.2667 153.81 16.064C154.269 15.8507 154.807 15.744 155.426 15.744C156.322 15.744 157.042 15.9573 157.586 16.384C158.13 16.8107 158.45 17.4133 158.546 18.192H156.994C156.951 17.8293 156.791 17.552 156.514 17.36C156.237 17.1573 155.869 17.056 155.41 17.056C154.951 17.056 154.599 17.1467 154.354 17.328C154.109 17.5093 153.986 17.7493 153.986 18.048C153.986 18.24 154.055 18.4107 154.194 18.56C154.333 18.7093 154.535 18.8373 154.802 18.944C155.079 19.04 155.415 19.1307 155.81 19.216C156.375 19.3227 156.882 19.456 157.33 19.616C157.778 19.776 158.135 20.0107 158.402 20.32C158.669 20.6293 158.802 21.072 158.802 21.648C158.813 22.1493 158.685 22.592 158.418 22.976C158.162 23.36 157.794 23.6587 157.314 23.872C156.845 24.0853 156.285 24.192 155.634 24.192ZM163.686 24C163.174 24 162.731 23.92 162.358 23.76C161.985 23.6 161.697 23.3333 161.494 22.96C161.291 22.5867 161.19 22.08 161.19 21.44V17.296H159.798V15.936H161.19L161.382 13.92H162.79V15.936H165.078V17.296H162.79V21.456C162.79 21.9147 162.886 22.2293 163.078 22.4C163.27 22.56 163.601 22.64 164.07 22.64H164.998V24H163.686ZM173.608 24.192C172.947 24.192 172.397 24.08 171.96 23.856C171.523 23.632 171.197 23.3333 170.984 22.96C170.771 22.576 170.664 22.1653 170.664 21.728C170.664 21.1947 170.803 20.7413 171.08 20.368C171.357 19.984 171.752 19.6907 172.264 19.488C172.776 19.2853 173.389 19.184 174.104 19.184H176.2C176.2 18.7147 176.131 18.3253 175.992 18.016C175.853 17.7067 175.645 17.4773 175.368 17.328C175.101 17.168 174.76 17.088 174.344 17.088C173.864 17.088 173.453 17.2053 173.112 17.44C172.771 17.664 172.557 18 172.472 18.448H170.872C170.936 17.8827 171.128 17.4027 171.448 17.008C171.779 16.6027 172.2 16.2933 172.712 16.08C173.224 15.856 173.768 15.744 174.344 15.744C175.101 15.744 175.736 15.8773 176.248 16.144C176.76 16.4107 177.144 16.7893 177.4 17.28C177.667 17.76 177.8 18.336 177.8 19.008V24H176.408L176.28 22.64C176.163 22.8533 176.024 23.056 175.864 23.248C175.704 23.44 175.512 23.6053 175.288 23.744C175.075 23.8827 174.824 23.9893 174.536 24.064C174.259 24.1493 173.949 24.192 173.608 24.192ZM173.912 22.896C174.253 22.896 174.563 22.8267 174.84 22.688C175.117 22.5493 175.352 22.3627 175.544 22.128C175.747 21.8827 175.896 21.6107 175.992 21.312C176.099 21.0027 176.157 20.688 176.168 20.368V20.32H174.264C173.805 20.32 173.432 20.3787 173.144 20.496C172.867 20.6027 172.664 20.752 172.536 20.944C172.408 21.136 172.344 21.36 172.344 21.616C172.344 21.8827 172.403 22.112 172.52 22.304C172.648 22.4853 172.829 22.6293 173.064 22.736C173.299 22.8427 173.581 22.896 173.912 22.896ZM179.842 24V15.936H181.282L181.378 17.312C181.634 16.832 181.997 16.4533 182.466 16.176C182.936 15.888 183.474 15.744 184.082 15.744C184.722 15.744 185.272 15.872 185.73 16.128C186.189 16.384 186.546 16.7733 186.802 17.296C187.058 17.808 187.186 18.4533 187.186 19.232V24H185.586V19.392C185.586 18.6453 185.421 18.08 185.09 17.696C184.76 17.312 184.28 17.12 183.65 17.12C183.234 17.12 182.861 17.2213 182.53 17.424C182.2 17.616 181.933 17.904 181.73 18.288C181.538 18.672 181.442 19.1413 181.442 19.696V24H179.842ZM192.817 24.192C192.049 24.192 191.372 24.0107 190.785 23.648C190.198 23.2747 189.74 22.7733 189.409 22.144C189.089 21.504 188.929 20.7787 188.929 19.968C188.929 19.1467 189.089 18.4213 189.409 17.792C189.74 17.1627 190.198 16.6667 190.785 16.304C191.382 15.9307 192.065 15.744 192.833 15.744C193.462 15.744 194.017 15.872 194.497 16.128C194.977 16.3733 195.35 16.7253 195.617 17.184V12.48H197.217V24H195.777L195.617 22.752C195.457 22.9973 195.249 23.232 194.993 23.456C194.737 23.6693 194.428 23.8453 194.065 23.984C193.702 24.1227 193.286 24.192 192.817 24.192ZM193.073 22.8C193.574 22.8 194.017 22.6827 194.401 22.448C194.785 22.2133 195.078 21.8827 195.281 21.456C195.494 21.0293 195.601 20.5333 195.601 19.968C195.601 19.4027 195.494 18.912 195.281 18.496C195.078 18.0693 194.785 17.7387 194.401 17.504C194.017 17.2587 193.574 17.136 193.073 17.136C192.593 17.136 192.161 17.2587 191.777 17.504C191.393 17.7387 191.094 18.0693 190.881 18.496C190.668 18.912 190.561 19.4027 190.561 19.968C190.561 20.5333 190.668 21.0293 190.881 21.456C191.094 21.8827 191.393 22.2133 191.777 22.448C192.161 22.6827 192.593 22.8 193.073 22.8ZM92.428 45.192C91.3293 45.192 90.38 44.952 89.58 44.472C88.7907 43.9813 88.1773 43.304 87.74 42.44C87.3133 41.5653 87.1 40.552 87.1 39.4C87.1 38.2587 87.3133 37.2507 87.74 36.376C88.1773 35.5013 88.7907 34.824 89.58 34.344C90.38 33.8533 91.3293 33.608 92.428 33.608C93.74 33.608 94.8013 33.9227 95.612 34.552C96.4333 35.1813 96.956 36.0667 97.18 37.208H95.42C95.26 36.5467 94.9293 36.0187 94.428 35.624C93.9373 35.2293 93.2707 35.032 92.428 35.032C91.6707 35.032 91.0147 35.208 90.46 35.56C89.9053 35.912 89.4787 36.4133 89.18 37.064C88.8813 37.7147 88.732 38.4933 88.732 39.4C88.732 40.3067 88.8813 41.0907 89.18 41.752C89.4787 42.4027 89.9053 42.904 90.46 43.256C91.0147 43.5973 91.6707 43.768 92.428 43.768C93.2707 43.768 93.9373 43.5813 94.428 43.208C94.9293 42.824 95.26 42.3067 95.42 41.656H97.18C96.956 42.7653 96.4333 43.6347 95.612 44.264C94.8013 44.8827 93.74 45.192 92.428 45.192ZM102.694 45.192C101.937 45.192 101.254 45.016 100.646 44.664C100.049 44.312 99.5741 43.8213 99.2221 43.192C98.8808 42.552 98.7101 41.816 98.7101 40.984C98.7101 40.1307 98.8861 39.3893 99.2381 38.76C99.5901 38.12 100.07 37.624 100.678 37.272C101.286 36.92 101.969 36.744 102.726 36.744C103.494 36.744 104.177 36.92 104.774 37.272C105.371 37.624 105.841 38.1147 106.182 38.744C106.534 39.3733 106.71 40.1147 106.71 40.968C106.71 41.8213 106.534 42.5627 106.182 43.192C105.841 43.8213 105.366 44.312 104.758 44.664C104.15 45.016 103.462 45.192 102.694 45.192ZM102.694 43.816C103.131 43.816 103.526 43.7093 103.878 43.496C104.241 43.2827 104.529 42.968 104.742 42.552C104.966 42.1253 105.078 41.5973 105.078 40.968C105.078 40.3387 104.971 39.816 104.758 39.4C104.545 38.9733 104.257 38.6533 103.894 38.44C103.542 38.2267 103.153 38.12 102.726 38.12C102.299 38.12 101.905 38.2267 101.542 38.44C101.179 38.6533 100.886 38.9733 100.662 39.4C100.449 39.816 100.342 40.3387 100.342 40.968C100.342 41.5973 100.449 42.1253 100.662 42.552C100.886 42.968 101.174 43.2827 101.526 43.496C101.889 43.7093 102.278 43.816 102.694 43.816ZM108.592 45V36.936H110.032L110.144 38.072C110.4 37.656 110.742 37.3307 111.168 37.096C111.595 36.8613 112.075 36.744 112.608 36.744C113.014 36.744 113.382 36.8027 113.712 36.92C114.043 37.0267 114.336 37.192 114.592 37.416C114.848 37.64 115.056 37.9173 115.216 38.248C115.504 37.7787 115.888 37.4107 116.368 37.144C116.859 36.8773 117.376 36.744 117.92 36.744C118.571 36.744 119.131 36.8773 119.6 37.144C120.07 37.4 120.427 37.7893 120.672 38.312C120.918 38.824 121.04 39.464 121.04 40.232V45H119.456V40.392C119.456 39.6453 119.302 39.08 118.992 38.696C118.694 38.312 118.251 38.12 117.664 38.12C117.27 38.12 116.918 38.2213 116.608 38.424C116.299 38.6267 116.054 38.92 115.872 39.304C115.702 39.688 115.616 40.1573 115.616 40.712V45H114.016V40.392C114.016 39.6453 113.862 39.08 113.552 38.696C113.254 38.312 112.811 38.12 112.224 38.12C111.851 38.12 111.51 38.2213 111.2 38.424C110.891 38.6267 110.646 38.92 110.464 39.304C110.283 39.688 110.192 40.1573 110.192 40.712V45H108.592ZM123.108 45V36.936H124.548L124.66 38.072C124.916 37.656 125.257 37.3307 125.684 37.096C126.111 36.8613 126.591 36.744 127.124 36.744C127.529 36.744 127.897 36.8027 128.228 36.92C128.559 37.0267 128.852 37.192 129.108 37.416C129.364 37.64 129.572 37.9173 129.732 38.248C130.02 37.7787 130.404 37.4107 130.884 37.144C131.375 36.8773 131.892 36.744 132.436 36.744C133.087 36.744 133.647 36.8773 134.116 37.144C134.585 37.4 134.943 37.7893 135.188 38.312C135.433 38.824 135.556 39.464 135.556 40.232V45H133.972V40.392C133.972 39.6453 133.817 39.08 133.508 38.696C133.209 38.312 132.767 38.12 132.18 38.12C131.785 38.12 131.433 38.2213 131.124 38.424C130.815 38.6267 130.569 38.92 130.388 39.304C130.217 39.688 130.132 40.1573 130.132 40.712V45H128.532V40.392C128.532 39.6453 128.377 39.08 128.068 38.696C127.769 38.312 127.327 38.12 126.74 38.12C126.367 38.12 126.025 38.2213 125.716 38.424C125.407 38.6267 125.161 38.92 124.98 39.304C124.799 39.688 124.708 40.1573 124.708 40.712V45H123.108ZM140.583 45.192C139.954 45.192 139.405 45.064 138.935 44.808C138.477 44.552 138.119 44.168 137.863 43.656C137.618 43.144 137.495 42.4987 137.495 41.72V36.936H139.095V41.544C139.095 42.3013 139.261 42.872 139.591 43.256C139.922 43.64 140.397 43.832 141.015 43.832C141.431 43.832 141.805 43.7307 142.135 43.528C142.477 43.3253 142.743 43.032 142.935 42.648C143.127 42.264 143.223 41.7947 143.223 41.24V36.936H144.823V45H143.399L143.287 43.624C143.042 44.1147 142.685 44.4987 142.215 44.776C141.746 45.0533 141.202 45.192 140.583 45.192ZM147.014 45V36.936H148.454L148.55 38.312C148.806 37.832 149.169 37.4533 149.638 37.176C150.107 36.888 150.646 36.744 151.254 36.744C151.894 36.744 152.443 36.872 152.902 37.128C153.361 37.384 153.718 37.7733 153.974 38.296C154.23 38.808 154.358 39.4533 154.358 40.232V45H152.758V40.392C152.758 39.6453 152.593 39.08 152.262 38.696C151.931 38.312 151.451 38.12 150.822 38.12C150.406 38.12 150.033 38.2213 149.702 38.424C149.371 38.616 149.105 38.904 148.902 39.288C148.71 39.672 148.614 40.1413 148.614 40.696V45H147.014ZM156.517 45V36.936H158.117V45H156.517ZM157.333 35.416C157.023 35.416 156.767 35.32 156.565 35.128C156.373 34.936 156.277 34.6907 156.277 34.392C156.277 34.104 156.373 33.8693 156.565 33.688C156.767 33.496 157.023 33.4 157.333 33.4C157.631 33.4 157.882 33.496 158.085 33.688C158.287 33.8693 158.389 34.104 158.389 34.392C158.389 34.6907 158.287 34.936 158.085 35.128C157.882 35.32 157.631 35.416 157.333 35.416ZM163.733 45C163.221 45 162.778 44.92 162.405 44.76C162.031 44.6 161.743 44.3333 161.541 43.96C161.338 43.5867 161.237 43.08 161.237 42.44V38.296H159.845V36.936H161.237L161.429 34.92H162.837V36.936H165.125V38.296H162.837V42.456C162.837 42.9147 162.933 43.2293 163.125 43.4C163.317 43.56 163.647 43.64 164.117 43.64H165.045V45H163.733ZM167.817 48.52L169.785 44.104H169.321L166.137 36.936H167.865L170.393 42.792L172.937 36.936H174.617L169.497 48.52H167.817ZM181.755 45L179.387 36.936H180.971L182.731 43.656L182.427 43.64L184.379 36.936H186.171L188.123 43.64L187.819 43.656L189.563 36.936H191.179L188.811 45H187.163L185.115 38.008H185.435L183.387 45H181.755ZM192.735 45V36.936H194.335V45H192.735ZM193.551 35.416C193.242 35.416 192.986 35.32 192.783 35.128C192.591 34.936 192.495 34.6907 192.495 34.392C192.495 34.104 192.591 33.8693 192.783 33.688C192.986 33.496 193.242 33.4 193.551 33.4C193.85 33.4 194.101 33.496 194.303 33.688C194.506 33.8693 194.607 34.104 194.607 34.392C194.607 34.6907 194.506 34.936 194.303 35.128C194.101 35.32 193.85 35.416 193.551 35.416ZM199.951 45C199.439 45 198.997 44.92 198.623 44.76C198.25 44.6 197.962 44.3333 197.759 43.96C197.557 43.5867 197.455 43.08 197.455 42.44V38.296H196.063V36.936H197.455L197.647 34.92H199.055V36.936H201.343V38.296H199.055V42.456C199.055 42.9147 199.151 43.2293 199.343 43.4C199.535 43.56 199.866 43.64 200.335 43.64H201.263V45H199.951ZM203.108 45V33.48H204.708V38.248C204.975 37.7787 205.343 37.4107 205.812 37.144C206.292 36.8773 206.82 36.744 207.396 36.744C208.036 36.744 208.585 36.8773 209.044 37.144C209.503 37.4 209.855 37.7893 210.1 38.312C210.345 38.824 210.468 39.4693 210.468 40.248V45H208.884V40.408C208.884 39.6613 208.724 39.096 208.404 38.712C208.084 38.3173 207.609 38.12 206.98 38.12C206.553 38.12 206.169 38.2213 205.828 38.424C205.487 38.6267 205.215 38.9253 205.012 39.32C204.809 39.704 204.708 40.1733 204.708 40.728V45H203.108ZM216.688 45V33.8H223.648V35.112H218.288V38.744H222.768V40.024H218.288V45H216.688ZM228.585 45.192C227.827 45.192 227.145 45.016 226.537 44.664C225.939 44.312 225.465 43.8213 225.113 43.192C224.771 42.552 224.601 41.816 224.601 40.984C224.601 40.1307 224.777 39.3893 225.129 38.76C225.481 38.12 225.961 37.624 226.569 37.272C227.177 36.92 227.859 36.744 228.617 36.744C229.385 36.744 230.067 36.92 230.665 37.272C231.262 37.624 231.731 38.1147 232.073 38.744C232.425 39.3733 232.601 40.1147 232.601 40.968C232.601 41.8213 232.425 42.5627 232.073 43.192C231.731 43.8213 231.257 44.312 230.649 44.664C230.041 45.016 229.353 45.192 228.585 45.192ZM228.585 43.816C229.022 43.816 229.417 43.7093 229.769 43.496C230.131 43.2827 230.419 42.968 230.633 42.552C230.857 42.1253 230.969 41.5973 230.969 40.968C230.969 40.3387 230.862 39.816 230.649 39.4C230.435 38.9733 230.147 38.6533 229.785 38.44C229.433 38.2267 229.043 38.12 228.617 38.12C228.19 38.12 227.795 38.2267 227.433 38.44C227.07 38.6533 226.777 38.9733 226.553 39.4C226.339 39.816 226.233 40.3387 226.233 40.968C226.233 41.5973 226.339 42.1253 226.553 42.552C226.777 42.968 227.065 43.2827 227.417 43.496C227.779 43.7093 228.169 43.816 228.585 43.816ZM234.483 45V36.936H235.923L236.067 38.456C236.248 38.0933 236.483 37.7893 236.771 37.544C237.059 37.288 237.395 37.0907 237.779 36.952C238.174 36.8133 238.622 36.744 239.123 36.744V38.44H238.547C238.216 38.44 237.902 38.4827 237.603 38.568C237.304 38.6427 237.038 38.776 236.803 38.968C236.579 39.16 236.403 39.4213 236.275 39.752C236.147 40.0827 236.083 40.4933 236.083 40.984V45H234.483ZM243.552 45.192C242.923 45.192 242.374 45.064 241.904 44.808C241.446 44.552 241.088 44.168 240.832 43.656C240.587 43.144 240.464 42.4987 240.464 41.72V36.936H242.064V41.544C242.064 42.3013 242.23 42.872 242.56 43.256C242.891 43.64 243.366 43.832 243.984 43.832C244.4 43.832 244.774 43.7307 245.104 43.528C245.446 43.3253 245.712 43.032 245.904 42.648C246.096 42.264 246.192 41.7947 246.192 41.24V36.936H247.792V45H246.368L246.256 43.624C246.011 44.1147 245.654 44.4987 245.184 44.776C244.715 45.0533 244.171 45.192 243.552 45.192ZM249.983 45V36.936H251.423L251.535 38.072C251.791 37.656 252.132 37.3307 252.559 37.096C252.986 36.8613 253.466 36.744 253.999 36.744C254.404 36.744 254.772 36.8027 255.103 36.92C255.434 37.0267 255.727 37.192 255.983 37.416C256.239 37.64 256.447 37.9173 256.607 38.248C256.895 37.7787 257.279 37.4107 257.759 37.144C258.25 36.8773 258.767 36.744 259.311 36.744C259.962 36.744 260.522 36.8773 260.991 37.144C261.46 37.4 261.818 37.7893 262.063 38.312C262.308 38.824 262.431 39.464 262.431 40.232V45H260.847V40.392C260.847 39.6453 260.692 39.08 260.383 38.696C260.084 38.312 259.642 38.12 259.055 38.12C258.66 38.12 258.308 38.2213 257.999 38.424C257.69 38.6267 257.444 38.92 257.263 39.304C257.092 39.688 257.007 40.1573 257.007 40.712V45H255.407V40.392C255.407 39.6453 255.252 39.08 254.943 38.696C254.644 38.312 254.202 38.12 253.615 38.12C253.242 38.12 252.9 38.2213 252.591 38.424C252.282 38.6267 252.036 38.92 251.855 39.304C251.674 39.688 251.583 40.1573 251.583 40.712V45H249.983Z" fill="#33643F"/>
</svg>
