<svg width="281" height="60" viewBox="0 0 281 60" fill="none" xmlns="http://www.w3.org/2000/svg">
<rect x="0.5" y="0.5" width="280" height="59" rx="11.5" stroke="#9E9E9E"/>
<path d="M15.3926 21.9346C15.0542 23.3455 14.875 24.8184 14.875 26.3331C14.875 36.7115 23.2883 45.1248 33.6667 45.1248C35.1814 45.1248 36.6543 44.9455 38.0652 44.6073C35.137 47.7458 30.9643 49.7082 26.3333 49.7082C17.4738 49.7082 10.2917 42.5261 10.2917 33.6665C10.2917 29.0355 12.254 24.8628 15.3926 21.9346Z" fill="#3A643C"/>
<path fill-rule="evenodd" clip-rule="evenodd" d="M33.6667 10.2915C24.8071 10.2915 17.625 17.4736 17.625 26.3332C17.625 35.1928 24.8071 42.3748 33.6667 42.3748C42.5262 42.3748 49.7083 35.1928 49.7083 26.3332C49.7083 17.4736 42.5262 10.2915 33.6667 10.2915ZM30.249 20.5386C30.8329 20.1007 31.5323 19.7847 32.2917 19.6114V18.0832H35.0417V19.6131C36.4876 19.9443 37.7636 20.797 38.3684 22.0804L35.881 23.2527C35.6659 22.7966 34.8921 22.2082 33.6667 22.2082C32.9229 22.2082 32.3025 22.436 31.899 22.7386C31.4958 23.0409 31.375 23.3536 31.375 23.5832C31.375 23.8127 31.4958 24.1254 31.899 24.4277C32.3025 24.7303 32.9229 24.9582 33.6667 24.9582C34.948 24.9582 36.1607 25.3459 37.0844 26.0386C38.0084 26.7316 38.7083 27.794 38.7083 29.0832C38.7083 30.3724 38.0084 31.4348 37.0844 32.1278C36.5004 32.5656 35.801 32.8817 35.0417 33.0549V34.5832H32.2917V33.0533C30.8457 32.722 29.5697 31.8693 28.9649 30.586L31.4524 29.4137C31.6674 29.8697 32.4413 30.4582 33.6667 30.4582C34.4104 30.4582 35.0308 30.2303 35.4344 29.9278C35.8375 29.6255 35.9583 29.3127 35.9583 29.0832C35.9583 28.8536 35.8375 28.5409 35.4344 28.2386C35.0308 27.9361 34.4104 27.7082 33.6667 27.7082C32.3853 27.7082 31.1726 27.3204 30.249 26.6278C29.325 25.9347 28.625 24.8724 28.625 23.5832C28.625 22.294 29.325 21.2316 30.249 20.5386Z" fill="#3A643C"/>
<path d="M85.168 25V13.8H92.24V15.112H86.768V18.696H91.76V19.976H86.768V23.688H92.24V25H85.168ZM96.9006 25.192C96.2393 25.192 95.69 25.08 95.2526 24.856C94.8153 24.632 94.49 24.3333 94.2766 23.96C94.0633 23.576 93.9566 23.1653 93.9566 22.728C93.9566 22.1947 94.0953 21.7413 94.3726 21.368C94.65 20.984 95.0446 20.6907 95.5566 20.488C96.0686 20.2853 96.682 20.184 97.3966 20.184H99.4926C99.4926 19.7147 99.4233 19.3253 99.2846 19.016C99.146 18.7067 98.938 18.4773 98.6606 18.328C98.394 18.168 98.0526 18.088 97.6366 18.088C97.1566 18.088 96.746 18.2053 96.4046 18.44C96.0633 18.664 95.85 19 95.7646 19.448H94.1646C94.2286 18.8827 94.4206 18.4027 94.7406 18.008C95.0713 17.6027 95.4926 17.2933 96.0046 17.08C96.5166 16.856 97.0606 16.744 97.6366 16.744C98.394 16.744 99.0286 16.8773 99.5406 17.144C100.053 17.4107 100.437 17.7893 100.693 18.28C100.959 18.76 101.093 19.336 101.093 20.008V25H99.7006L99.5726 23.64C99.4553 23.8533 99.3166 24.056 99.1566 24.248C98.9966 24.44 98.8046 24.6053 98.5806 24.744C98.3673 24.8827 98.1166 24.9893 97.8286 25.064C97.5513 25.1493 97.242 25.192 96.9006 25.192ZM97.2046 23.896C97.546 23.896 97.8553 23.8267 98.1326 23.688C98.41 23.5493 98.6446 23.3627 98.8366 23.128C99.0393 22.8827 99.1886 22.6107 99.2846 22.312C99.3913 22.0027 99.45 21.688 99.4606 21.368V21.32H97.5566C97.098 21.32 96.7246 21.3787 96.4366 21.496C96.1593 21.6027 95.9566 21.752 95.8286 21.944C95.7006 22.136 95.6366 22.36 95.6366 22.616C95.6366 22.8827 95.6953 23.112 95.8126 23.304C95.9406 23.4853 96.122 23.6293 96.3566 23.736C96.5913 23.8427 96.874 23.896 97.2046 23.896ZM103.135 25V16.936H104.575L104.719 18.456C104.9 18.0933 105.135 17.7893 105.423 17.544C105.711 17.288 106.047 17.0907 106.431 16.952C106.826 16.8133 107.274 16.744 107.775 16.744V18.44H107.199C106.868 18.44 106.554 18.4827 106.255 18.568C105.956 18.6427 105.69 18.776 105.455 18.968C105.231 19.16 105.055 19.4213 104.927 19.752C104.799 20.0827 104.735 20.4933 104.735 20.984V25H103.135ZM109.244 25V16.936H110.684L110.78 18.312C111.036 17.832 111.399 17.4533 111.868 17.176C112.338 16.888 112.876 16.744 113.484 16.744C114.124 16.744 114.674 16.872 115.132 17.128C115.591 17.384 115.948 17.7733 116.204 18.296C116.46 18.808 116.588 19.4533 116.588 20.232V25H114.988V20.392C114.988 19.6453 114.823 19.08 114.492 18.696C114.162 18.312 113.682 18.12 113.052 18.12C112.636 18.12 112.263 18.2213 111.932 18.424C111.602 18.616 111.335 18.904 111.132 19.288C110.94 19.672 110.844 20.1413 110.844 20.696V25H109.244ZM122.809 25V13.8H124.697L128.489 21.368L132.265 13.8H134.169V25H132.569V16.6L129.097 23.432H127.865L124.409 16.616V25H122.809ZM140.096 25.192C139.339 25.192 138.656 25.016 138.048 24.664C137.451 24.312 136.976 23.8213 136.624 23.192C136.283 22.552 136.112 21.816 136.112 20.984C136.112 20.1307 136.288 19.3893 136.64 18.76C136.992 18.12 137.472 17.624 138.08 17.272C138.688 16.92 139.371 16.744 140.128 16.744C140.896 16.744 141.579 16.92 142.176 17.272C142.773 17.624 143.243 18.1147 143.584 18.744C143.936 19.3733 144.112 20.1147 144.112 20.968C144.112 21.8213 143.936 22.5627 143.584 23.192C143.243 23.8213 142.768 24.312 142.16 24.664C141.552 25.016 140.864 25.192 140.096 25.192ZM140.096 23.816C140.533 23.816 140.928 23.7093 141.28 23.496C141.643 23.2827 141.931 22.968 142.144 22.552C142.368 22.1253 142.48 21.5973 142.48 20.968C142.48 20.3387 142.373 19.816 142.16 19.4C141.947 18.9733 141.659 18.6533 141.296 18.44C140.944 18.2267 140.555 18.12 140.128 18.12C139.701 18.12 139.307 18.2267 138.944 18.44C138.581 18.6533 138.288 18.9733 138.064 19.4C137.851 19.816 137.744 20.3387 137.744 20.968C137.744 21.5973 137.851 22.1253 138.064 22.552C138.288 22.968 138.576 23.2827 138.928 23.496C139.291 23.7093 139.68 23.816 140.096 23.816ZM145.994 25V16.936H147.434L147.578 18.456C147.76 18.0933 147.994 17.7893 148.282 17.544C148.57 17.288 148.906 17.0907 149.29 16.952C149.685 16.8133 150.133 16.744 150.634 16.744V18.44H150.058C149.728 18.44 149.413 18.4827 149.114 18.568C148.816 18.6427 148.549 18.776 148.314 18.968C148.09 19.16 147.914 19.4213 147.786 19.752C147.658 20.0827 147.594 20.4933 147.594 20.984V25H145.994ZM155.517 25.192C154.749 25.192 154.067 25.016 153.469 24.664C152.872 24.312 152.403 23.8213 152.061 23.192C151.731 22.5627 151.565 21.832 151.565 21C151.565 20.1467 151.731 19.4053 152.061 18.776C152.403 18.136 152.872 17.64 153.469 17.288C154.067 16.9253 154.76 16.744 155.549 16.744C156.339 16.744 157.016 16.92 157.581 17.272C158.147 17.624 158.584 18.0933 158.893 18.68C159.203 19.256 159.357 19.896 159.357 20.6C159.357 20.7067 159.352 20.824 159.341 20.952C159.341 21.0693 159.336 21.2027 159.325 21.352H152.733V20.216H157.757C157.725 19.544 157.501 19.0213 157.085 18.648C156.669 18.264 156.152 18.072 155.533 18.072C155.096 18.072 154.696 18.1733 154.333 18.376C153.971 18.568 153.677 18.856 153.453 19.24C153.24 19.6133 153.133 20.088 153.133 20.664V21.112C153.133 21.7093 153.24 22.216 153.453 22.632C153.677 23.0373 153.971 23.3467 154.333 23.56C154.696 23.7627 155.091 23.864 155.517 23.864C156.029 23.864 156.451 23.752 156.781 23.528C157.112 23.304 157.357 23 157.517 22.616H159.117C158.979 23.1067 158.744 23.5493 158.413 23.944C158.083 24.328 157.672 24.632 157.181 24.856C156.701 25.08 156.147 25.192 155.517 25.192ZM166.861 25L164.493 16.936H166.077L167.837 23.656L167.533 23.64L169.485 16.936H171.277L173.229 23.64L172.925 23.656L174.669 16.936H176.285L173.917 25H172.269L170.221 18.008H170.541L168.493 25H166.861ZM177.841 25V16.936H179.441V25H177.841ZM178.657 15.416C178.347 15.416 178.091 15.32 177.889 15.128C177.697 14.936 177.601 14.6907 177.601 14.392C177.601 14.104 177.697 13.8693 177.889 13.688C178.091 13.496 178.347 13.4 178.657 13.4C178.955 13.4 179.206 13.496 179.409 13.688C179.611 13.8693 179.713 14.104 179.713 14.392C179.713 14.6907 179.611 14.936 179.409 15.128C179.206 15.32 178.955 15.416 178.657 15.416ZM185.057 25C184.545 25 184.102 24.92 183.729 24.76C183.355 24.6 183.067 24.3333 182.865 23.96C182.662 23.5867 182.561 23.08 182.561 22.44V18.296H181.169V16.936H182.561L182.753 14.92H184.161V16.936H186.449V18.296H184.161V22.456C184.161 22.9147 184.257 23.2293 184.449 23.4C184.641 23.56 184.971 23.64 185.441 23.64H186.369V25H185.057ZM188.213 25V13.48H189.813V18.248C190.08 17.7787 190.448 17.4107 190.917 17.144C191.397 16.8773 191.925 16.744 192.501 16.744C193.141 16.744 193.69 16.8773 194.149 17.144C194.608 17.4 194.96 17.7893 195.205 18.312C195.45 18.824 195.573 19.4693 195.573 20.248V25H193.989V20.408C193.989 19.6613 193.829 19.096 193.509 18.712C193.189 18.3173 192.714 18.12 192.085 18.12C191.658 18.12 191.274 18.2213 190.933 18.424C190.592 18.6267 190.32 18.9253 190.117 19.32C189.914 19.704 189.813 20.1733 189.813 20.728V25H188.213ZM201.793 25V13.8H205.617C206.513 13.8 207.249 13.9493 207.825 14.248C208.401 14.5467 208.828 14.9467 209.105 15.448C209.382 15.9493 209.521 16.52 209.521 17.16C209.521 17.768 209.382 18.328 209.105 18.84C208.838 19.3413 208.417 19.7467 207.841 20.056C207.265 20.3547 206.524 20.504 205.617 20.504H203.393V25H201.793ZM203.393 19.176H205.553C206.396 19.176 206.993 18.9947 207.345 18.632C207.708 18.2587 207.889 17.768 207.889 17.16C207.889 16.5093 207.708 16.008 207.345 15.656C206.993 15.304 206.396 15.128 205.553 15.128H203.393V19.176ZM213.416 25.192C212.755 25.192 212.206 25.08 211.768 24.856C211.331 24.632 211.006 24.3333 210.792 23.96C210.579 23.576 210.472 23.1653 210.472 22.728C210.472 22.1947 210.611 21.7413 210.888 21.368C211.166 20.984 211.56 20.6907 212.072 20.488C212.584 20.2853 213.198 20.184 213.912 20.184H216.008C216.008 19.7147 215.939 19.3253 215.8 19.016C215.662 18.7067 215.454 18.4773 215.176 18.328C214.91 18.168 214.568 18.088 214.152 18.088C213.672 18.088 213.262 18.2053 212.92 18.44C212.579 18.664 212.366 19 212.28 19.448H210.68C210.744 18.8827 210.936 18.4027 211.256 18.008C211.587 17.6027 212.008 17.2933 212.52 17.08C213.032 16.856 213.576 16.744 214.152 16.744C214.91 16.744 215.544 16.8773 216.056 17.144C216.568 17.4107 216.952 17.7893 217.208 18.28C217.475 18.76 217.608 19.336 217.608 20.008V25H216.216L216.088 23.64C215.971 23.8533 215.832 24.056 215.672 24.248C215.512 24.44 215.32 24.6053 215.096 24.744C214.883 24.8827 214.632 24.9893 214.344 25.064C214.067 25.1493 213.758 25.192 213.416 25.192ZM213.72 23.896C214.062 23.896 214.371 23.8267 214.648 23.688C214.926 23.5493 215.16 23.3627 215.352 23.128C215.555 22.8827 215.704 22.6107 215.8 22.312C215.907 22.0027 215.966 21.688 215.976 21.368V21.32H214.072C213.614 21.32 213.24 21.3787 212.952 21.496C212.675 21.6027 212.472 21.752 212.344 21.944C212.216 22.136 212.152 22.36 212.152 22.616C212.152 22.8827 212.211 23.112 212.328 23.304C212.456 23.4853 212.638 23.6293 212.872 23.736C213.107 23.8427 213.39 23.896 213.72 23.896ZM220.329 28.52L222.297 24.104H221.833L218.649 16.936H220.377L222.905 22.792L225.449 16.936H227.128L222.009 28.52H220.329ZM85.168 46V34.8H88.992C89.888 34.8 90.624 34.9493 91.2 35.248C91.776 35.5467 92.2027 35.9467 92.48 36.448C92.7573 36.9493 92.896 37.52 92.896 38.16C92.896 38.768 92.7573 39.328 92.48 39.84C92.2133 40.3413 91.792 40.7467 91.216 41.056C90.64 41.3547 89.8987 41.504 88.992 41.504H86.768V46H85.168ZM86.768 40.176H88.928C89.7707 40.176 90.368 39.9947 90.72 39.632C91.0827 39.2587 91.264 38.768 91.264 38.16C91.264 37.5093 91.0827 37.008 90.72 36.656C90.368 36.304 89.7707 36.128 88.928 36.128H86.768V40.176ZM97.736 46.192C96.968 46.192 96.2853 46.016 95.688 45.664C95.0907 45.312 94.6213 44.8213 94.28 44.192C93.9493 43.5627 93.784 42.832 93.784 42C93.784 41.1467 93.9493 40.4053 94.28 39.776C94.6213 39.136 95.0907 38.64 95.688 38.288C96.2853 37.9253 96.9787 37.744 97.768 37.744C98.5573 37.744 99.2347 37.92 99.8 38.272C100.365 38.624 100.803 39.0933 101.112 39.68C101.421 40.256 101.576 40.896 101.576 41.6C101.576 41.7067 101.571 41.824 101.56 41.952C101.56 42.0693 101.555 42.2027 101.544 42.352H94.952V41.216H99.976C99.944 40.544 99.72 40.0213 99.304 39.648C98.888 39.264 98.3707 39.072 97.752 39.072C97.3147 39.072 96.9147 39.1733 96.552 39.376C96.1893 39.568 95.896 39.856 95.672 40.24C95.4587 40.6133 95.352 41.088 95.352 41.664V42.112C95.352 42.7093 95.4587 43.216 95.672 43.632C95.896 44.0373 96.1893 44.3467 96.552 44.56C96.9147 44.7627 97.3093 44.864 97.736 44.864C98.248 44.864 98.6693 44.752 99 44.528C99.3307 44.304 99.576 44 99.736 43.616H101.336C101.197 44.1067 100.963 44.5493 100.632 44.944C100.301 45.328 99.8907 45.632 99.4 45.856C98.92 46.08 98.3653 46.192 97.736 46.192ZM103.354 46V37.936H104.794L104.938 39.456C105.119 39.0933 105.354 38.7893 105.642 38.544C105.93 38.288 106.266 38.0907 106.65 37.952C107.044 37.8133 107.492 37.744 107.994 37.744V39.44H107.418C107.087 39.44 106.772 39.4827 106.474 39.568C106.175 39.6427 105.908 39.776 105.674 39.968C105.45 40.16 105.274 40.4213 105.146 40.752C105.018 41.0827 104.954 41.4933 104.954 41.984V46H103.354ZM118.549 46.192C117.45 46.192 116.501 45.952 115.701 45.472C114.911 44.9813 114.298 44.304 113.861 43.44C113.434 42.5653 113.221 41.552 113.221 40.4C113.221 39.2587 113.434 38.2507 113.861 37.376C114.298 36.5013 114.911 35.824 115.701 35.344C116.501 34.8533 117.45 34.608 118.549 34.608C119.861 34.608 120.922 34.9227 121.733 35.552C122.554 36.1813 123.077 37.0667 123.301 38.208H121.541C121.381 37.5467 121.05 37.0187 120.549 36.624C120.058 36.2293 119.391 36.032 118.549 36.032C117.791 36.032 117.135 36.208 116.581 36.56C116.026 36.912 115.599 37.4133 115.301 38.064C115.002 38.7147 114.853 39.4933 114.853 40.4C114.853 41.3067 115.002 42.0907 115.301 42.752C115.599 43.4027 116.026 43.904 116.581 44.256C117.135 44.5973 117.791 44.768 118.549 44.768C119.391 44.768 120.058 44.5813 120.549 44.208C121.05 43.824 121.381 43.3067 121.541 42.656H123.301C123.077 43.7653 122.554 44.6347 121.733 45.264C120.922 45.8827 119.861 46.192 118.549 46.192ZM128.815 46.192C128.058 46.192 127.375 46.016 126.767 45.664C126.17 45.312 125.695 44.8213 125.343 44.192C125.002 43.552 124.831 42.816 124.831 41.984C124.831 41.1307 125.007 40.3893 125.359 39.76C125.711 39.12 126.191 38.624 126.799 38.272C127.407 37.92 128.09 37.744 128.847 37.744C129.615 37.744 130.298 37.92 130.895 38.272C131.492 38.624 131.962 39.1147 132.303 39.744C132.655 40.3733 132.831 41.1147 132.831 41.968C132.831 42.8213 132.655 43.5627 132.303 44.192C131.962 44.8213 131.487 45.312 130.879 45.664C130.271 46.016 129.583 46.192 128.815 46.192ZM128.815 44.816C129.252 44.816 129.647 44.7093 129.999 44.496C130.362 44.2827 130.65 43.968 130.863 43.552C131.087 43.1253 131.199 42.5973 131.199 41.968C131.199 41.3387 131.092 40.816 130.879 40.4C130.666 39.9733 130.378 39.6533 130.015 39.44C129.663 39.2267 129.274 39.12 128.847 39.12C128.42 39.12 128.026 39.2267 127.663 39.44C127.3 39.6533 127.007 39.9733 126.783 40.4C126.57 40.816 126.463 41.3387 126.463 41.968C126.463 42.5973 126.57 43.1253 126.783 43.552C127.007 43.968 127.295 44.2827 127.647 44.496C128.01 44.7093 128.399 44.816 128.815 44.816ZM134.713 46V37.936H136.153L136.249 39.312C136.505 38.832 136.868 38.4533 137.337 38.176C137.806 37.888 138.345 37.744 138.953 37.744C139.593 37.744 140.142 37.872 140.601 38.128C141.06 38.384 141.417 38.7733 141.673 39.296C141.929 39.808 142.057 40.4533 142.057 41.232V46H140.457V41.392C140.457 40.6453 140.292 40.08 139.961 39.696C139.63 39.312 139.15 39.12 138.521 39.12C138.105 39.12 137.732 39.2213 137.401 39.424C137.07 39.616 136.804 39.904 136.601 40.288C136.409 40.672 136.313 41.1413 136.313 41.696V46H134.713ZM146.267 46L143.243 37.936H144.923L147.211 44.464L149.515 37.936H151.163L148.155 46H146.267ZM155.861 46.192C155.093 46.192 154.41 46.016 153.813 45.664C153.216 45.312 152.746 44.8213 152.405 44.192C152.074 43.5627 151.909 42.832 151.909 42C151.909 41.1467 152.074 40.4053 152.405 39.776C152.746 39.136 153.216 38.64 153.813 38.288C154.41 37.9253 155.104 37.744 155.893 37.744C156.682 37.744 157.36 37.92 157.925 38.272C158.49 38.624 158.928 39.0933 159.237 39.68C159.546 40.256 159.701 40.896 159.701 41.6C159.701 41.7067 159.696 41.824 159.685 41.952C159.685 42.0693 159.68 42.2027 159.669 42.352H153.077V41.216H158.101C158.069 40.544 157.845 40.0213 157.429 39.648C157.013 39.264 156.496 39.072 155.877 39.072C155.44 39.072 155.04 39.1733 154.677 39.376C154.314 39.568 154.021 39.856 153.797 40.24C153.584 40.6133 153.477 41.088 153.477 41.664V42.112C153.477 42.7093 153.584 43.216 153.797 43.632C154.021 44.0373 154.314 44.3467 154.677 44.56C155.04 44.7627 155.434 44.864 155.861 44.864C156.373 44.864 156.794 44.752 157.125 44.528C157.456 44.304 157.701 44 157.861 43.616H159.461C159.322 44.1067 159.088 44.5493 158.757 44.944C158.426 45.328 158.016 45.632 157.525 45.856C157.045 46.08 156.49 46.192 155.861 46.192ZM161.479 46V37.936H162.919L163.063 39.456C163.244 39.0933 163.479 38.7893 163.767 38.544C164.055 38.288 164.391 38.0907 164.775 37.952C165.169 37.8133 165.617 37.744 166.119 37.744V39.44H165.543C165.212 39.44 164.897 39.4827 164.599 39.568C164.3 39.6427 164.033 39.776 163.799 39.968C163.575 40.16 163.399 40.4213 163.271 40.752C163.143 41.0827 163.079 41.4933 163.079 41.984V46H161.479ZM170.708 46.192C170.025 46.192 169.428 46.08 168.916 45.856C168.404 45.632 167.999 45.3173 167.7 44.912C167.401 44.5067 167.22 44.032 167.156 43.488H168.788C168.841 43.744 168.943 43.9787 169.092 44.192C169.252 44.4053 169.465 44.576 169.732 44.704C170.009 44.832 170.335 44.896 170.708 44.896C171.06 44.896 171.348 44.848 171.572 44.752C171.807 44.6453 171.977 44.5067 172.084 44.336C172.191 44.1547 172.244 43.9627 172.244 43.76C172.244 43.4613 172.169 43.2373 172.02 43.088C171.881 42.928 171.668 42.8053 171.38 42.72C171.103 42.624 170.767 42.5387 170.372 42.464C169.999 42.4 169.636 42.3147 169.284 42.208C168.943 42.0907 168.633 41.9467 168.356 41.776C168.089 41.6053 167.876 41.392 167.716 41.136C167.556 40.8693 167.476 40.544 167.476 40.16C167.476 39.7013 167.599 39.2907 167.844 38.928C168.089 38.5547 168.436 38.2667 168.884 38.064C169.343 37.8507 169.881 37.744 170.5 37.744C171.396 37.744 172.116 37.9573 172.66 38.384C173.204 38.8107 173.524 39.4133 173.62 40.192H172.068C172.025 39.8293 171.865 39.552 171.588 39.36C171.311 39.1573 170.943 39.056 170.484 39.056C170.025 39.056 169.673 39.1467 169.428 39.328C169.183 39.5093 169.06 39.7493 169.06 40.048C169.06 40.24 169.129 40.4107 169.268 40.56C169.407 40.7093 169.609 40.8373 169.876 40.944C170.153 41.04 170.489 41.1307 170.884 41.216C171.449 41.3227 171.956 41.456 172.404 41.616C172.852 41.776 173.209 42.0107 173.476 42.32C173.743 42.6293 173.876 43.072 173.876 43.648C173.887 44.1493 173.759 44.592 173.492 44.976C173.236 45.36 172.868 45.6587 172.388 45.872C171.919 46.0853 171.359 46.192 170.708 46.192ZM178.432 46.192C177.771 46.192 177.221 46.08 176.784 45.856C176.347 45.632 176.021 45.3333 175.808 44.96C175.595 44.576 175.488 44.1653 175.488 43.728C175.488 43.1947 175.627 42.7413 175.904 42.368C176.181 41.984 176.576 41.6907 177.088 41.488C177.6 41.2853 178.213 41.184 178.928 41.184H181.024C181.024 40.7147 180.955 40.3253 180.816 40.016C180.677 39.7067 180.469 39.4773 180.192 39.328C179.925 39.168 179.584 39.088 179.168 39.088C178.688 39.088 178.277 39.2053 177.936 39.44C177.595 39.664 177.381 40 177.296 40.448H175.696C175.76 39.8827 175.952 39.4027 176.272 39.008C176.603 38.6027 177.024 38.2933 177.536 38.08C178.048 37.856 178.592 37.744 179.168 37.744C179.925 37.744 180.56 37.8773 181.072 38.144C181.584 38.4107 181.968 38.7893 182.224 39.28C182.491 39.76 182.624 40.336 182.624 41.008V46H181.232L181.104 44.64C180.987 44.8533 180.848 45.056 180.688 45.248C180.528 45.44 180.336 45.6053 180.112 45.744C179.899 45.8827 179.648 45.9893 179.36 46.064C179.083 46.1493 178.773 46.192 178.432 46.192ZM178.736 44.896C179.077 44.896 179.387 44.8267 179.664 44.688C179.941 44.5493 180.176 44.3627 180.368 44.128C180.571 43.8827 180.72 43.6107 180.816 43.312C180.923 43.0027 180.981 42.688 180.992 42.368V42.32H179.088C178.629 42.32 178.256 42.3787 177.968 42.496C177.691 42.6027 177.488 42.752 177.36 42.944C177.232 43.136 177.168 43.36 177.168 43.616C177.168 43.8827 177.227 44.112 177.344 44.304C177.472 44.4853 177.653 44.6293 177.888 44.736C178.123 44.8427 178.405 44.896 178.736 44.896ZM187.822 46C187.31 46 186.868 45.92 186.494 45.76C186.121 45.6 185.833 45.3333 185.63 44.96C185.428 44.5867 185.326 44.08 185.326 43.44V39.296H183.934V37.936H185.326L185.518 35.92H186.926V37.936H189.214V39.296H186.926V43.456C186.926 43.9147 187.022 44.2293 187.214 44.4C187.406 44.56 187.737 44.64 188.206 44.64H189.134V46H187.822ZM191.091 46V37.936H192.691V46H191.091ZM191.907 36.416C191.597 36.416 191.341 36.32 191.139 36.128C190.947 35.936 190.851 35.6907 190.851 35.392C190.851 35.104 190.947 34.8693 191.139 34.688C191.341 34.496 191.597 34.4 191.907 34.4C192.205 34.4 192.456 34.496 192.659 34.688C192.861 34.8693 192.963 35.104 192.963 35.392C192.963 35.6907 192.861 35.936 192.659 36.128C192.456 36.32 192.205 36.416 191.907 36.416ZM198.659 46.192C197.901 46.192 197.219 46.016 196.611 45.664C196.013 45.312 195.539 44.8213 195.187 44.192C194.845 43.552 194.675 42.816 194.675 41.984C194.675 41.1307 194.851 40.3893 195.203 39.76C195.555 39.12 196.035 38.624 196.643 38.272C197.251 37.92 197.933 37.744 198.691 37.744C199.459 37.744 200.141 37.92 200.739 38.272C201.336 38.624 201.805 39.1147 202.147 39.744C202.499 40.3733 202.675 41.1147 202.675 41.968C202.675 42.8213 202.499 43.5627 202.147 44.192C201.805 44.8213 201.331 45.312 200.723 45.664C200.115 46.016 199.427 46.192 198.659 46.192ZM198.659 44.816C199.096 44.816 199.491 44.7093 199.843 44.496C200.205 44.2827 200.493 43.968 200.707 43.552C200.931 43.1253 201.043 42.5973 201.043 41.968C201.043 41.3387 200.936 40.816 200.723 40.4C200.509 39.9733 200.221 39.6533 199.859 39.44C199.507 39.2267 199.117 39.12 198.691 39.12C198.264 39.12 197.869 39.2267 197.507 39.44C197.144 39.6533 196.851 39.9733 196.627 40.4C196.413 40.816 196.307 41.3387 196.307 41.968C196.307 42.5973 196.413 43.1253 196.627 43.552C196.851 43.968 197.139 44.2827 197.491 44.496C197.853 44.7093 198.243 44.816 198.659 44.816ZM204.557 46V37.936H205.997L206.093 39.312C206.349 38.832 206.711 38.4533 207.181 38.176C207.65 37.888 208.189 37.744 208.797 37.744C209.437 37.744 209.986 37.872 210.445 38.128C210.903 38.384 211.261 38.7733 211.517 39.296C211.773 39.808 211.901 40.4533 211.901 41.232V46H210.301V41.392C210.301 40.6453 210.135 40.08 209.805 39.696C209.474 39.312 208.994 39.12 208.365 39.12C207.949 39.12 207.575 39.2213 207.245 39.424C206.914 39.616 206.647 39.904 206.445 40.288C206.253 40.672 206.157 41.1413 206.157 41.696V46H204.557Z" fill="#33643F"/>
</svg>
