<svg width="281" height="61" viewBox="0 0 281 61" fill="none" xmlns="http://www.w3.org/2000/svg">
<rect x="0.5" y="0.5" width="280" height="59.2647" rx="11.5" stroke="#9E9E9E"/>
<path fill-rule="evenodd" clip-rule="evenodd" d="M41.9317 18.46C41.8974 18.0233 41.8396 17.6253 41.7419 17.2509C41.0942 14.7687 39.2065 12.8298 36.7896 12.1647C35.8936 11.9182 34.8594 11.9187 33.4667 11.9195L15.7164 11.9196C12.8153 11.9196 10.4635 14.3349 10.4635 17.3143V31.8319C10.4635 33.8192 10.4635 35.573 10.5241 37.109C10.5438 37.6108 10.5537 37.8617 10.6741 38.0072C10.7011 38.0398 10.7189 38.0574 10.7516 38.0839C10.8977 38.2018 11.2009 38.2018 11.8073 38.2018C12.0739 38.2044 12.7509 38.2403 13.3988 38.4526C13.7477 38.5585 14.1159 38.7029 14.4963 38.8943C14.6487 38.9711 14.7249 39.0094 14.7824 39.0236C14.9517 39.0655 15.0979 39.0332 15.2359 38.924C15.2827 38.8868 15.3315 38.8266 15.4291 38.7062C16.5452 37.3288 17.8949 35.8104 19.3734 34.4758C20.8059 33.1825 22.6093 31.8312 24.6453 31.0888C26.9771 30.2387 29.5369 31.4955 30.3629 33.8959C31.1886 36.2962 29.9678 38.9314 27.6359 39.7815C27.1432 39.9613 26.3384 40.4536 25.2801 41.4089C24.2687 42.3221 23.2471 43.4549 22.308 44.6135C21.8898 45.1296 21.5071 45.6545 21.1613 46.1506C20.6607 46.8688 20.4104 47.2279 20.555 47.5263C20.6997 47.8249 21.1273 47.8351 21.9826 47.8552C23.22 47.8845 24.5877 47.8845 26.0931 47.8845H36.8512C39.2223 47.8845 41.1775 47.8847 42.7248 47.6709C44.3495 47.4466 45.7843 46.9575 46.9331 45.7777C48.0819 44.5978 48.5579 43.1244 48.7764 41.456C48.9845 39.8667 48.9844 37.8587 48.9844 35.4236V31.5735C48.9844 29.1384 48.9845 27.1304 48.7764 25.5412C48.5579 23.8727 48.0819 22.3992 46.9331 21.2193C45.7843 20.0395 44.3495 19.5504 42.7248 19.3261C42.4509 19.2883 42.3138 19.2694 42.2205 19.213C42.1266 19.1563 42.0653 19.0898 42.0151 18.9901C41.9655 18.8912 41.9542 18.7475 41.9317 18.46ZM33.225 15.5161C34.9662 15.5161 35.4931 15.5315 35.8823 15.6386C37.0907 15.9712 38.0348 16.9406 38.3585 18.1817C38.4271 18.4445 38.4614 18.576 38.4112 18.733C38.3777 18.8373 38.2844 18.9624 38.1953 19.0226C38.0608 19.1132 37.8893 19.113 37.5462 19.1128L36.8505 19.1126H15.7156C14.7486 19.1126 13.9646 18.3074 13.9646 17.3143C13.9646 16.3212 14.7486 15.5161 15.7156 15.5161H33.225ZM39.5781 29.9021C41.5572 29.9021 43.1614 31.5538 43.1614 33.5909C43.1614 35.6282 41.5572 37.2796 39.5781 37.2796C37.599 37.2796 35.9948 35.6282 35.9948 33.5909C35.9948 31.5538 37.599 29.9021 39.5781 29.9021Z" fill="#3A643C"/>
<path d="M27.8295 34.8194C28.1598 35.7796 27.6714 36.8337 26.7387 37.1738C25.7827 37.5224 24.6782 38.2728 23.5081 39.3291C22.3566 40.3686 21.2365 41.6172 20.2444 42.8415C19.2556 44.0615 18.4158 45.2303 17.8227 46.0953C17.5267 46.5269 17.2938 46.8805 17.1362 47.1241L16.9029 47.4904C16.5566 48.0513 15.9437 48.3773 15.299 48.3434C14.6541 48.3093 14.0769 47.9207 13.7881 47.3262C12.9986 45.7006 12.2903 45.0534 11.9332 44.8083C11.7822 44.7047 11.6801 44.6632 11.6396 44.649C10.7287 44.5619 10.0156 43.7731 10.0156 42.8127C10.0156 41.7941 10.8178 40.9684 11.8073 40.9684C11.9549 40.9698 12.3216 40.9975 12.6075 41.0969C12.9799 41.2065 13.4293 41.4018 13.9209 41.7391C14.4123 42.0765 14.9277 42.5425 15.4451 43.1805C16.0098 42.3859 16.7057 41.4497 17.4928 40.4785C18.5558 39.1668 19.807 37.764 21.1454 36.5557C22.4652 35.3643 23.9692 34.2702 25.5425 33.6966C26.4753 33.3567 27.4991 33.8593 27.8295 34.8194Z" fill="#3A643C"/>
<path d="M84.168 25.1323V13.9323H85.768V25.1323H84.168ZM88.0255 25.1323V17.0683H89.4655L89.5615 18.4443C89.8175 17.9643 90.1802 17.5857 90.6495 17.3083C91.1188 17.0203 91.6575 16.8763 92.2655 16.8763C92.9055 16.8763 93.4548 17.0043 93.9135 17.2603C94.3722 17.5163 94.7295 17.9057 94.9855 18.4283C95.2415 18.9403 95.3695 19.5857 95.3695 20.3643V25.1323H93.7695V20.5243C93.7695 19.7777 93.6042 19.2123 93.2735 18.8283C92.9428 18.4443 92.4628 18.2523 91.8335 18.2523C91.4175 18.2523 91.0442 18.3537 90.7135 18.5563C90.3828 18.7483 90.1162 19.0363 89.9135 19.4203C89.7215 19.8043 89.6255 20.2737 89.6255 20.8283V25.1323H88.0255ZM100.536 25.3243C99.8535 25.3243 99.2561 25.2123 98.7441 24.9883C98.2321 24.7643 97.8268 24.4497 97.5281 24.0443C97.2295 23.639 97.0481 23.1643 96.9841 22.6203H98.6161C98.6695 22.8763 98.7708 23.111 98.9201 23.3243C99.0801 23.5377 99.2935 23.7083 99.5601 23.8363C99.8375 23.9643 100.163 24.0283 100.536 24.0283C100.888 24.0283 101.176 23.9803 101.4 23.8843C101.635 23.7777 101.805 23.639 101.912 23.4683C102.019 23.287 102.072 23.095 102.072 22.8923C102.072 22.5937 101.997 22.3697 101.848 22.2203C101.709 22.0603 101.496 21.9377 101.208 21.8523C100.931 21.7563 100.595 21.671 100.2 21.5963C99.8268 21.5323 99.4641 21.447 99.1121 21.3403C98.7708 21.223 98.4615 21.079 98.1841 20.9083C97.9175 20.7377 97.7041 20.5243 97.5441 20.2683C97.3841 20.0017 97.3041 19.6763 97.3041 19.2923C97.3041 18.8337 97.4268 18.423 97.6721 18.0603C97.9175 17.687 98.2641 17.399 98.7121 17.1963C99.1708 16.983 99.7095 16.8763 100.328 16.8763C101.224 16.8763 101.944 17.0897 102.488 17.5163C103.032 17.943 103.352 18.5457 103.448 19.3243H101.896C101.853 18.9617 101.693 18.6843 101.416 18.4923C101.139 18.2897 100.771 18.1883 100.312 18.1883C99.8535 18.1883 99.5015 18.279 99.2561 18.4603C99.0108 18.6417 98.8881 18.8817 98.8881 19.1803C98.8881 19.3723 98.9575 19.543 99.0961 19.6923C99.2348 19.8417 99.4375 19.9697 99.7041 20.0763C99.9815 20.1723 100.317 20.263 100.712 20.3483C101.277 20.455 101.784 20.5883 102.232 20.7483C102.68 20.9083 103.037 21.143 103.304 21.4523C103.571 21.7617 103.704 22.2043 103.704 22.7803C103.715 23.2817 103.587 23.7243 103.32 24.1083C103.064 24.4923 102.696 24.791 102.216 25.0043C101.747 25.2177 101.187 25.3243 100.536 25.3243ZM108.588 25.1323C108.076 25.1323 107.633 25.0523 107.26 24.8923C106.887 24.7323 106.599 24.4657 106.396 24.0923C106.193 23.719 106.092 23.2123 106.092 22.5723V18.4283H104.7V17.0683H106.092L106.284 15.0523H107.692V17.0683H109.98V18.4283H107.692V22.5883C107.692 23.047 107.788 23.3617 107.98 23.5323C108.172 23.6923 108.503 23.7723 108.972 23.7723H109.9V25.1323H108.588ZM114.416 25.3243C113.755 25.3243 113.206 25.2123 112.768 24.9883C112.331 24.7643 112.006 24.4657 111.792 24.0923C111.579 23.7083 111.472 23.2977 111.472 22.8603C111.472 22.327 111.611 21.8737 111.888 21.5003C112.166 21.1163 112.56 20.823 113.072 20.6203C113.584 20.4177 114.198 20.3163 114.912 20.3163H117.008C117.008 19.847 116.939 19.4577 116.8 19.1483C116.662 18.839 116.454 18.6097 116.176 18.4603C115.91 18.3003 115.568 18.2203 115.152 18.2203C114.672 18.2203 114.262 18.3377 113.92 18.5723C113.579 18.7963 113.366 19.1323 113.28 19.5803H111.68C111.744 19.015 111.936 18.535 112.256 18.1403C112.587 17.735 113.008 17.4257 113.52 17.2123C114.032 16.9883 114.576 16.8763 115.152 16.8763C115.91 16.8763 116.544 17.0097 117.056 17.2763C117.568 17.543 117.952 17.9217 118.208 18.4123C118.475 18.8923 118.608 19.4683 118.608 20.1403V25.1323H117.216L117.088 23.7723C116.971 23.9857 116.832 24.1883 116.672 24.3803C116.512 24.5723 116.32 24.7377 116.096 24.8763C115.883 25.015 115.632 25.1217 115.344 25.1963C115.067 25.2817 114.758 25.3243 114.416 25.3243ZM114.72 24.0283C115.062 24.0283 115.371 23.959 115.648 23.8203C115.926 23.6817 116.16 23.495 116.352 23.2603C116.555 23.015 116.704 22.743 116.8 22.4443C116.907 22.135 116.966 21.8203 116.976 21.5003V21.4523H115.072C114.614 21.4523 114.24 21.511 113.952 21.6283C113.675 21.735 113.472 21.8843 113.344 22.0763C113.216 22.2683 113.152 22.4923 113.152 22.7483C113.152 23.015 113.211 23.2443 113.328 23.4363C113.456 23.6177 113.638 23.7617 113.872 23.8683C114.107 23.975 114.39 24.0283 114.72 24.0283ZM120.651 25.1323V17.0683H122.091L122.187 18.4443C122.443 17.9643 122.805 17.5857 123.275 17.3083C123.744 17.0203 124.283 16.8763 124.891 16.8763C125.531 16.8763 126.08 17.0043 126.539 17.2603C126.997 17.5163 127.355 17.9057 127.611 18.4283C127.867 18.9403 127.995 19.5857 127.995 20.3643V25.1323H126.395V20.5243C126.395 19.7777 126.229 19.2123 125.899 18.8283C125.568 18.4443 125.088 18.2523 124.459 18.2523C124.043 18.2523 123.669 18.3537 123.339 18.5563C123.008 18.7483 122.741 19.0363 122.539 19.4203C122.347 19.8043 122.251 20.2737 122.251 20.8283V25.1323H120.651ZM133.369 25.1323C132.857 25.1323 132.414 25.0523 132.041 24.8923C131.668 24.7323 131.38 24.4657 131.177 24.0923C130.974 23.719 130.873 23.2123 130.873 22.5723V18.4283H129.481V17.0683H130.873L131.065 15.0523H132.473V17.0683H134.761V18.4283H132.473V22.5883C132.473 23.047 132.569 23.3617 132.761 23.5323C132.953 23.6923 133.284 23.7723 133.753 23.7723H134.681V25.1323H133.369ZM139.979 25.1323L144.091 13.9323H145.835L149.947 25.1323H148.235L144.955 15.8523L141.659 25.1323H139.979ZM141.835 22.3643L142.283 21.0843H147.547L147.995 22.3643H141.835ZM154.769 25.3243C153.99 25.3243 153.297 25.1483 152.689 24.7963C152.081 24.4337 151.601 23.9377 151.249 23.3083C150.908 22.679 150.737 21.9483 150.737 21.1163C150.737 20.2737 150.908 19.5377 151.249 18.9083C151.601 18.2683 152.081 17.7723 152.689 17.4203C153.297 17.0577 153.99 16.8763 154.769 16.8763C155.75 16.8763 156.572 17.1323 157.233 17.6443C157.894 18.1563 158.316 18.8497 158.497 19.7243H156.833C156.726 19.255 156.481 18.8923 156.097 18.6363C155.724 18.3803 155.276 18.2523 154.753 18.2523C154.326 18.2523 153.932 18.3643 153.569 18.5883C153.206 18.8017 152.913 19.1217 152.689 19.5483C152.476 19.9643 152.369 20.4817 152.369 21.1003C152.369 21.559 152.433 21.9697 152.561 22.3323C152.689 22.6843 152.86 22.983 153.073 23.2283C153.297 23.4737 153.553 23.6603 153.841 23.7883C154.129 23.9057 154.433 23.9643 154.753 23.9643C155.105 23.9643 155.42 23.911 155.697 23.8043C155.985 23.687 156.225 23.5163 156.417 23.2923C156.62 23.0683 156.758 22.8017 156.833 22.4923H158.497C158.316 23.3457 157.894 24.0337 157.233 24.5563C156.572 25.0683 155.75 25.3243 154.769 25.3243ZM164.097 25.3243C163.319 25.3243 162.625 25.1483 162.017 24.7963C161.409 24.4337 160.929 23.9377 160.577 23.3083C160.236 22.679 160.065 21.9483 160.065 21.1163C160.065 20.2737 160.236 19.5377 160.577 18.9083C160.929 18.2683 161.409 17.7723 162.017 17.4203C162.625 17.0577 163.319 16.8763 164.097 16.8763C165.079 16.8763 165.9 17.1323 166.561 17.6443C167.223 18.1563 167.644 18.8497 167.825 19.7243H166.161C166.055 19.255 165.809 18.8923 165.425 18.6363C165.052 18.3803 164.604 18.2523 164.081 18.2523C163.655 18.2523 163.26 18.3643 162.897 18.5883C162.535 18.8017 162.241 19.1217 162.017 19.5483C161.804 19.9643 161.697 20.4817 161.697 21.1003C161.697 21.559 161.761 21.9697 161.889 22.3323C162.017 22.6843 162.188 22.983 162.401 23.2283C162.625 23.4737 162.881 23.6603 163.169 23.7883C163.457 23.9057 163.761 23.9643 164.081 23.9643C164.433 23.9643 164.748 23.911 165.025 23.8043C165.313 23.687 165.553 23.5163 165.745 23.2923C165.948 23.0683 166.087 22.8017 166.161 22.4923H167.825C167.644 23.3457 167.223 24.0337 166.561 24.5563C165.9 25.0683 165.079 25.3243 164.097 25.3243ZM173.345 25.3243C172.577 25.3243 171.895 25.1483 171.297 24.7963C170.7 24.4443 170.231 23.9537 169.889 23.3243C169.559 22.695 169.393 21.9643 169.393 21.1323C169.393 20.279 169.559 19.5377 169.889 18.9083C170.231 18.2683 170.7 17.7723 171.297 17.4203C171.895 17.0577 172.588 16.8763 173.377 16.8763C174.167 16.8763 174.844 17.0523 175.409 17.4043C175.975 17.7563 176.412 18.2257 176.721 18.8123C177.031 19.3883 177.185 20.0283 177.185 20.7323C177.185 20.839 177.18 20.9563 177.169 21.0843C177.169 21.2017 177.164 21.335 177.153 21.4843H170.561V20.3483H175.585C175.553 19.6763 175.329 19.1537 174.913 18.7803C174.497 18.3963 173.98 18.2043 173.361 18.2043C172.924 18.2043 172.524 18.3057 172.161 18.5083C171.799 18.7003 171.505 18.9883 171.281 19.3723C171.068 19.7457 170.961 20.2203 170.961 20.7963V21.2443C170.961 21.8417 171.068 22.3483 171.281 22.7643C171.505 23.1697 171.799 23.479 172.161 23.6923C172.524 23.895 172.919 23.9963 173.345 23.9963C173.857 23.9963 174.279 23.8843 174.609 23.6603C174.94 23.4363 175.185 23.1323 175.345 22.7483H176.945C176.807 23.239 176.572 23.6817 176.241 24.0763C175.911 24.4603 175.5 24.7643 175.009 24.9883C174.529 25.2123 173.975 25.3243 173.345 25.3243ZM182.083 25.3243C181.4 25.3243 180.803 25.2123 180.291 24.9883C179.779 24.7643 179.374 24.4497 179.075 24.0443C178.776 23.639 178.595 23.1643 178.531 22.6203H180.163C180.216 22.8763 180.318 23.111 180.467 23.3243C180.627 23.5377 180.84 23.7083 181.107 23.8363C181.384 23.9643 181.71 24.0283 182.083 24.0283C182.435 24.0283 182.723 23.9803 182.947 23.8843C183.182 23.7777 183.352 23.639 183.459 23.4683C183.566 23.287 183.619 23.095 183.619 22.8923C183.619 22.5937 183.544 22.3697 183.395 22.2203C183.256 22.0603 183.043 21.9377 182.755 21.8523C182.478 21.7563 182.142 21.671 181.747 21.5963C181.374 21.5323 181.011 21.447 180.659 21.3403C180.318 21.223 180.008 21.079 179.731 20.9083C179.464 20.7377 179.251 20.5243 179.091 20.2683C178.931 20.0017 178.851 19.6763 178.851 19.2923C178.851 18.8337 178.974 18.423 179.219 18.0603C179.464 17.687 179.811 17.399 180.259 17.1963C180.718 16.983 181.256 16.8763 181.875 16.8763C182.771 16.8763 183.491 17.0897 184.035 17.5163C184.579 17.943 184.899 18.5457 184.995 19.3243H183.443C183.4 18.9617 183.24 18.6843 182.963 18.4923C182.686 18.2897 182.318 18.1883 181.859 18.1883C181.4 18.1883 181.048 18.279 180.803 18.4603C180.558 18.6417 180.435 18.8817 180.435 19.1803C180.435 19.3723 180.504 19.543 180.643 19.6923C180.782 19.8417 180.984 19.9697 181.251 20.0763C181.528 20.1723 181.864 20.263 182.259 20.3483C182.824 20.455 183.331 20.5883 183.779 20.7483C184.227 20.9083 184.584 21.143 184.851 21.4523C185.118 21.7617 185.251 22.2043 185.251 22.7803C185.262 23.2817 185.134 23.7243 184.867 24.1083C184.611 24.4923 184.243 24.791 183.763 25.0043C183.294 25.2177 182.734 25.3243 182.083 25.3243ZM190.255 25.3243C189.572 25.3243 188.975 25.2123 188.463 24.9883C187.951 24.7643 187.546 24.4497 187.247 24.0443C186.948 23.639 186.767 23.1643 186.703 22.6203H188.335C188.388 22.8763 188.49 23.111 188.639 23.3243C188.799 23.5377 189.012 23.7083 189.279 23.8363C189.556 23.9643 189.882 24.0283 190.255 24.0283C190.607 24.0283 190.895 23.9803 191.119 23.8843C191.354 23.7777 191.524 23.639 191.631 23.4683C191.738 23.287 191.791 23.095 191.791 22.8923C191.791 22.5937 191.716 22.3697 191.567 22.2203C191.428 22.0603 191.215 21.9377 190.927 21.8523C190.65 21.7563 190.314 21.671 189.919 21.5963C189.546 21.5323 189.183 21.447 188.831 21.3403C188.49 21.223 188.18 21.079 187.903 20.9083C187.636 20.7377 187.423 20.5243 187.263 20.2683C187.103 20.0017 187.023 19.6763 187.023 19.2923C187.023 18.8337 187.146 18.423 187.391 18.0603C187.636 17.687 187.983 17.399 188.431 17.1963C188.89 16.983 189.428 16.8763 190.047 16.8763C190.943 16.8763 191.663 17.0897 192.207 17.5163C192.751 17.943 193.071 18.5457 193.167 19.3243H191.615C191.572 18.9617 191.412 18.6843 191.135 18.4923C190.858 18.2897 190.49 18.1883 190.031 18.1883C189.572 18.1883 189.22 18.279 188.975 18.4603C188.73 18.6417 188.607 18.8817 188.607 19.1803C188.607 19.3723 188.676 19.543 188.815 19.6923C188.954 19.8417 189.156 19.9697 189.423 20.0763C189.7 20.1723 190.036 20.263 190.431 20.3483C190.996 20.455 191.503 20.5883 191.951 20.7483C192.399 20.9083 192.756 21.143 193.023 21.4523C193.29 21.7617 193.423 22.2043 193.423 22.7803C193.434 23.2817 193.306 23.7243 193.039 24.1083C192.783 24.4923 192.415 24.791 191.935 25.0043C191.466 25.2177 190.906 25.3243 190.255 25.3243ZM202.729 25.1323C202.217 25.1323 201.774 25.0523 201.401 24.8923C201.027 24.7323 200.739 24.4657 200.537 24.0923C200.334 23.719 200.233 23.2123 200.233 22.5723V18.4283H198.84V17.0683H200.233L200.424 15.0523H201.833V17.0683H204.121V18.4283H201.833V22.5883C201.833 23.047 201.929 23.3617 202.121 23.5323C202.313 23.6923 202.643 23.7723 203.113 23.7723H204.041V25.1323H202.729ZM209.346 25.3243C208.589 25.3243 207.906 25.1483 207.298 24.7963C206.701 24.4443 206.226 23.9537 205.874 23.3243C205.533 22.6843 205.362 21.9483 205.362 21.1163C205.362 20.263 205.538 19.5217 205.89 18.8923C206.242 18.2523 206.722 17.7563 207.33 17.4043C207.938 17.0523 208.621 16.8763 209.378 16.8763C210.146 16.8763 210.829 17.0523 211.426 17.4043C212.023 17.7563 212.493 18.247 212.834 18.8763C213.186 19.5057 213.362 20.247 213.362 21.1003C213.362 21.9537 213.186 22.695 212.834 23.3243C212.493 23.9537 212.018 24.4443 211.41 24.7963C210.802 25.1483 210.114 25.3243 209.346 25.3243ZM209.346 23.9483C209.783 23.9483 210.178 23.8417 210.53 23.6283C210.893 23.415 211.181 23.1003 211.394 22.6843C211.618 22.2577 211.73 21.7297 211.73 21.1003C211.73 20.471 211.623 19.9483 211.41 19.5323C211.197 19.1057 210.909 18.7857 210.546 18.5723C210.194 18.359 209.805 18.2523 209.378 18.2523C208.951 18.2523 208.557 18.359 208.194 18.5723C207.831 18.7857 207.538 19.1057 207.314 19.5323C207.101 19.9483 206.994 20.471 206.994 21.1003C206.994 21.7297 207.101 22.2577 207.314 22.6843C207.538 23.1003 207.826 23.415 208.178 23.6283C208.541 23.8417 208.93 23.9483 209.346 23.9483ZM222.234 25.1323V20.9723L218.538 13.9323H220.346L223.242 19.8203H222.842L225.722 13.9323H227.514L223.834 20.9723V25.1323H222.234ZM231.159 25.3243C230.401 25.3243 229.719 25.1483 229.111 24.7963C228.513 24.4443 228.039 23.9537 227.687 23.3243C227.345 22.6843 227.175 21.9483 227.175 21.1163C227.175 20.263 227.351 19.5217 227.703 18.8923C228.055 18.2523 228.535 17.7563 229.143 17.4043C229.751 17.0523 230.433 16.8763 231.191 16.8763C231.959 16.8763 232.641 17.0523 233.239 17.4043C233.836 17.7563 234.305 18.247 234.647 18.8763C234.999 19.5057 235.175 20.247 235.175 21.1003C235.175 21.9537 234.999 22.695 234.647 23.3243C234.305 23.9537 233.831 24.4443 233.223 24.7963C232.615 25.1483 231.927 25.3243 231.159 25.3243ZM231.159 23.9483C231.596 23.9483 231.991 23.8417 232.343 23.6283C232.705 23.415 232.993 23.1003 233.207 22.6843C233.431 22.2577 233.543 21.7297 233.543 21.1003C233.543 20.471 233.436 19.9483 233.223 19.5323C233.009 19.1057 232.721 18.7857 232.359 18.5723C232.007 18.359 231.617 18.2523 231.191 18.2523C230.764 18.2523 230.369 18.359 230.007 18.5723C229.644 18.7857 229.351 19.1057 229.127 19.5323C228.913 19.9483 228.807 20.471 228.807 21.1003C228.807 21.7297 228.913 22.2577 229.127 22.6843C229.351 23.1003 229.639 23.415 229.991 23.6283C230.353 23.8417 230.743 23.9483 231.159 23.9483ZM240.017 25.3243C239.387 25.3243 238.838 25.1963 238.369 24.9403C237.91 24.6843 237.553 24.3003 237.297 23.7883C237.051 23.2763 236.929 22.631 236.929 21.8523V17.0683H238.529V21.6763C238.529 22.4337 238.694 23.0043 239.025 23.3883C239.355 23.7723 239.83 23.9643 240.449 23.9643C240.865 23.9643 241.238 23.863 241.569 23.6603C241.91 23.4577 242.177 23.1643 242.369 22.7803C242.561 22.3963 242.657 21.927 242.657 21.3723V17.0683H244.257V25.1323H242.833L242.721 23.7563C242.475 24.247 242.118 24.631 241.649 24.9083C241.179 25.1857 240.635 25.3243 240.017 25.3243ZM246.447 25.1323V17.0683H247.887L248.031 18.5883C248.213 18.2257 248.447 17.9217 248.735 17.6763C249.023 17.4203 249.359 17.223 249.743 17.0843C250.138 16.9457 250.586 16.8763 251.087 16.8763V18.5723H250.511C250.181 18.5723 249.866 18.615 249.567 18.7003C249.269 18.775 249.002 18.9083 248.767 19.1003C248.543 19.2923 248.367 19.5537 248.239 19.8843C248.111 20.215 248.047 20.6257 248.047 21.1163V25.1323H246.447ZM84.168 46.1323V34.9323H91.24V36.2443H85.768V39.8283H90.76V41.1083H85.768V44.8203H91.24V46.1323H84.168ZM95.9006 46.3243C95.2393 46.3243 94.69 46.2123 94.2526 45.9883C93.8153 45.7643 93.49 45.4657 93.2766 45.0923C93.0633 44.7083 92.9566 44.2977 92.9566 43.8603C92.9566 43.327 93.0953 42.8737 93.3726 42.5003C93.65 42.1163 94.0446 41.823 94.5566 41.6203C95.0686 41.4177 95.682 41.3163 96.3966 41.3163H98.4926C98.4926 40.847 98.4233 40.4577 98.2846 40.1483C98.146 39.839 97.938 39.6097 97.6606 39.4603C97.394 39.3003 97.0526 39.2203 96.6366 39.2203C96.1566 39.2203 95.746 39.3377 95.4046 39.5723C95.0633 39.7963 94.85 40.1323 94.7646 40.5803H93.1646C93.2286 40.015 93.4206 39.535 93.7406 39.1403C94.0713 38.735 94.4926 38.4257 95.0046 38.2123C95.5166 37.9883 96.0606 37.8763 96.6366 37.8763C97.394 37.8763 98.0286 38.0097 98.5406 38.2763C99.0526 38.543 99.4366 38.9217 99.6926 39.4123C99.9593 39.8923 100.093 40.4683 100.093 41.1403V46.1323H98.7006L98.5726 44.7723C98.4553 44.9857 98.3166 45.1883 98.1566 45.3803C97.9966 45.5723 97.8046 45.7377 97.5806 45.8763C97.3673 46.015 97.1166 46.1217 96.8286 46.1963C96.5513 46.2817 96.242 46.3243 95.9006 46.3243ZM96.2046 45.0283C96.546 45.0283 96.8553 44.959 97.1326 44.8203C97.41 44.6817 97.6446 44.495 97.8366 44.2603C98.0393 44.015 98.1886 43.743 98.2846 43.4443C98.3913 43.135 98.45 42.8203 98.4606 42.5003V42.4523H96.5566C96.098 42.4523 95.7246 42.511 95.4366 42.6283C95.1593 42.735 94.9566 42.8843 94.8286 43.0763C94.7006 43.2683 94.6366 43.4923 94.6366 43.7483C94.6366 44.015 94.6953 44.2443 94.8126 44.4363C94.9406 44.6177 95.122 44.7617 95.3566 44.8683C95.5913 44.975 95.874 45.0283 96.2046 45.0283ZM102.135 46.1323V38.0683H103.575L103.719 39.5883C103.9 39.2257 104.135 38.9217 104.423 38.6763C104.711 38.4203 105.047 38.223 105.431 38.0843C105.826 37.9457 106.274 37.8763 106.775 37.8763V39.5723H106.199C105.868 39.5723 105.554 39.615 105.255 39.7003C104.956 39.775 104.69 39.9083 104.455 40.1003C104.231 40.2923 104.055 40.5537 103.927 40.8843C103.799 41.215 103.735 41.6257 103.735 42.1163V46.1323H102.135ZM108.244 46.1323V38.0683H109.684L109.78 39.4443C110.036 38.9643 110.399 38.5857 110.868 38.3083C111.338 38.0203 111.876 37.8763 112.484 37.8763C113.124 37.8763 113.674 38.0043 114.132 38.2603C114.591 38.5163 114.948 38.9057 115.204 39.4283C115.46 39.9403 115.588 40.5857 115.588 41.3643V46.1323H113.988V41.5243C113.988 40.7777 113.823 40.2123 113.492 39.8283C113.162 39.4443 112.682 39.2523 112.052 39.2523C111.636 39.2523 111.263 39.3537 110.932 39.5563C110.602 39.7483 110.335 40.0363 110.132 40.4203C109.94 40.8043 109.844 41.2737 109.844 41.8283V46.1323H108.244ZM117.747 46.1323V38.0683H119.347V46.1323H117.747ZM118.563 36.5483C118.254 36.5483 117.998 36.4523 117.795 36.2603C117.603 36.0683 117.507 35.823 117.507 35.5243C117.507 35.2363 117.603 35.0017 117.795 34.8203C117.998 34.6283 118.254 34.5323 118.563 34.5323C118.862 34.5323 119.112 34.6283 119.315 34.8203C119.518 35.0017 119.619 35.2363 119.619 35.5243C119.619 35.823 119.518 36.0683 119.315 36.2603C119.112 36.4523 118.862 36.5483 118.563 36.5483ZM121.635 46.1323V38.0683H123.075L123.171 39.4443C123.427 38.9643 123.79 38.5857 124.259 38.3083C124.728 38.0203 125.267 37.8763 125.875 37.8763C126.515 37.8763 127.064 38.0043 127.523 38.2603C127.982 38.5163 128.339 38.9057 128.595 39.4283C128.851 39.9403 128.979 40.5857 128.979 41.3643V46.1323H127.379V41.5243C127.379 40.7777 127.214 40.2123 126.883 39.8283C126.552 39.4443 126.072 39.2523 125.443 39.2523C125.027 39.2523 124.654 39.3537 124.323 39.5563C123.992 39.7483 123.726 40.0363 123.523 40.4203C123.331 40.8043 123.235 41.2737 123.235 41.8283V46.1323H121.635ZM134.306 49.8443C133.57 49.8443 132.919 49.7483 132.354 49.5563C131.788 49.375 131.351 49.0923 131.042 48.7083C130.732 48.3243 130.578 47.855 130.578 47.3003C130.578 47.0123 130.642 46.719 130.77 46.4203C130.898 46.1323 131.106 45.855 131.394 45.5883C131.682 45.3217 132.071 45.0817 132.562 44.8683L133.458 45.5883C132.914 45.791 132.546 46.031 132.354 46.3083C132.172 46.5963 132.082 46.8737 132.082 47.1403C132.082 47.4603 132.178 47.727 132.37 47.9403C132.562 48.1537 132.823 48.3137 133.154 48.4203C133.495 48.527 133.879 48.5803 134.306 48.5803C134.722 48.5803 135.084 48.5217 135.394 48.4043C135.703 48.287 135.943 48.1217 136.114 47.9083C136.284 47.695 136.37 47.4443 136.37 47.1563C136.37 46.815 136.242 46.527 135.986 46.2923C135.73 46.0683 135.239 45.935 134.514 45.8923C133.906 45.8497 133.388 45.791 132.962 45.7163C132.546 45.6417 132.188 45.551 131.89 45.4443C131.602 45.3377 131.356 45.2203 131.154 45.0923C130.962 44.9643 130.796 44.831 130.658 44.6923V44.3243L132.258 42.6763L133.554 43.1243L131.81 44.7403L132.146 44.0203C132.263 44.095 132.375 44.1697 132.482 44.2443C132.588 44.3083 132.732 44.367 132.914 44.4203C133.095 44.4737 133.34 44.5217 133.65 44.5643C133.959 44.607 134.364 44.6497 134.866 44.6923C135.591 44.7457 136.172 44.8737 136.61 45.0763C137.058 45.279 137.383 45.551 137.586 45.8923C137.788 46.2337 137.89 46.639 137.89 47.1083C137.89 47.567 137.762 48.0043 137.506 48.4203C137.26 48.8363 136.871 49.1777 136.338 49.4443C135.815 49.711 135.138 49.8443 134.306 49.8443ZM134.306 43.6523C133.623 43.6523 133.042 43.5243 132.562 43.2683C132.092 43.0123 131.73 42.6657 131.474 42.2283C131.228 41.791 131.106 41.3057 131.106 40.7723C131.106 40.2283 131.228 39.743 131.474 39.3163C131.73 38.879 132.098 38.5323 132.578 38.2763C133.058 38.0097 133.634 37.8763 134.306 37.8763C134.978 37.8763 135.548 38.0097 136.018 38.2763C136.498 38.5323 136.86 38.879 137.106 39.3163C137.362 39.743 137.49 40.2283 137.49 40.7723C137.49 41.3057 137.362 41.791 137.106 42.2283C136.86 42.6657 136.498 43.0123 136.018 43.2683C135.548 43.5243 134.978 43.6523 134.306 43.6523ZM134.306 42.3723C134.828 42.3723 135.244 42.239 135.554 41.9723C135.863 41.695 136.018 41.295 136.018 40.7723C136.018 40.2497 135.863 39.855 135.554 39.5883C135.244 39.311 134.828 39.1723 134.306 39.1723C133.783 39.1723 133.362 39.311 133.042 39.5883C132.722 39.855 132.562 40.2497 132.562 40.7723C132.562 41.295 132.722 41.695 133.042 41.9723C133.362 42.239 133.783 42.3723 134.306 42.3723ZM135.618 39.3323L135.234 38.0683H138.546V39.1723L135.618 39.3323ZM143.271 46.3243C142.588 46.3243 141.991 46.2123 141.479 45.9883C140.967 45.7643 140.561 45.4497 140.263 45.0443C139.964 44.639 139.783 44.1643 139.719 43.6203H141.351C141.404 43.8763 141.505 44.111 141.655 44.3243C141.815 44.5377 142.028 44.7083 142.295 44.8363C142.572 44.9643 142.897 45.0283 143.271 45.0283C143.623 45.0283 143.911 44.9803 144.135 44.8843C144.369 44.7777 144.54 44.639 144.647 44.4683C144.753 44.287 144.807 44.095 144.807 43.8923C144.807 43.5937 144.732 43.3697 144.583 43.2203C144.444 43.0603 144.231 42.9377 143.943 42.8523C143.665 42.7563 143.329 42.671 142.935 42.5963C142.561 42.5323 142.199 42.447 141.847 42.3403C141.505 42.223 141.196 42.079 140.919 41.9083C140.652 41.7377 140.439 41.5243 140.279 41.2683C140.119 41.0017 140.039 40.6763 140.039 40.2923C140.039 39.8337 140.161 39.423 140.407 39.0603C140.652 38.687 140.999 38.399 141.447 38.1963C141.905 37.983 142.444 37.8763 143.062 37.8763C143.959 37.8763 144.679 38.0897 145.223 38.5163C145.767 38.943 146.087 39.5457 146.183 40.3243H144.631C144.588 39.9617 144.428 39.6843 144.151 39.4923C143.873 39.2897 143.505 39.1883 143.047 39.1883C142.588 39.1883 142.236 39.279 141.991 39.4603C141.745 39.6417 141.623 39.8817 141.623 40.1803C141.623 40.3723 141.692 40.543 141.831 40.6923C141.969 40.8417 142.172 40.9697 142.439 41.0763C142.716 41.1723 143.052 41.263 143.447 41.3483C144.012 41.455 144.519 41.5883 144.967 41.7483C145.415 41.9083 145.772 42.143 146.039 42.4523C146.305 42.7617 146.439 43.2043 146.439 43.7803C146.449 44.2817 146.321 44.7243 146.055 45.1083C145.799 45.4923 145.431 45.791 144.951 46.0043C144.481 46.2177 143.921 46.3243 143.271 46.3243ZM154.048 46.1323L151.68 38.0683H153.264L155.024 44.7883L154.72 44.7723L156.672 38.0683H158.464L160.416 44.7723L160.112 44.7883L161.856 38.0683H163.472L161.104 46.1323H159.456L157.408 39.1403H157.728L155.68 46.1323H154.048ZM165.028 46.1323V38.0683H166.628V46.1323H165.028ZM165.844 36.5483C165.535 36.5483 165.279 36.4523 165.076 36.2603C164.884 36.0683 164.788 35.823 164.788 35.5243C164.788 35.2363 164.884 35.0017 165.076 34.8203C165.279 34.6283 165.535 34.5323 165.844 34.5323C166.143 34.5323 166.393 34.6283 166.596 34.8203C166.799 35.0017 166.9 35.2363 166.9 35.5243C166.9 35.823 166.799 36.0683 166.596 36.2603C166.393 36.4523 166.143 36.5483 165.844 36.5483ZM172.244 46.1323C171.732 46.1323 171.289 46.0523 170.916 45.8923C170.543 45.7323 170.255 45.4657 170.052 45.0923C169.849 44.719 169.748 44.2123 169.748 43.5723V39.4283H168.356V38.0683H169.748L169.94 36.0523H171.348V38.0683H173.636V39.4283H171.348V43.5883C171.348 44.047 171.444 44.3617 171.636 44.5323C171.828 44.6923 172.159 44.7723 172.628 44.7723H173.556V46.1323H172.244ZM175.401 46.1323V34.6123H177.001V39.3803C177.267 38.911 177.635 38.543 178.105 38.2763C178.585 38.0097 179.113 37.8763 179.689 37.8763C180.329 37.8763 180.878 38.0097 181.337 38.2763C181.795 38.5323 182.147 38.9217 182.392 39.4443C182.638 39.9563 182.76 40.6017 182.76 41.3803V46.1323H181.177V41.5403C181.177 40.7937 181.017 40.2283 180.697 39.8443C180.377 39.4497 179.902 39.2523 179.273 39.2523C178.846 39.2523 178.462 39.3537 178.121 39.5563C177.779 39.759 177.507 40.0577 177.305 40.4523C177.102 40.8363 177.001 41.3057 177.001 41.8603V46.1323H175.401ZM191.269 46.1323L188.229 34.9323H189.941L192.213 44.2603L194.821 34.9323H196.597L199.125 44.2923L201.429 34.9323H203.141L200.053 46.1323H198.181L195.669 37.2203L193.093 46.1323H191.269ZM206.494 46.3243C205.833 46.3243 205.284 46.2123 204.846 45.9883C204.409 45.7643 204.084 45.4657 203.87 45.0923C203.657 44.7083 203.55 44.2977 203.55 43.8603C203.55 43.327 203.689 42.8737 203.966 42.5003C204.244 42.1163 204.638 41.823 205.15 41.6203C205.662 41.4177 206.276 41.3163 206.99 41.3163H209.086C209.086 40.847 209.017 40.4577 208.878 40.1483C208.74 39.839 208.532 39.6097 208.254 39.4603C207.988 39.3003 207.646 39.2203 207.23 39.2203C206.75 39.2203 206.34 39.3377 205.998 39.5723C205.657 39.7963 205.444 40.1323 205.358 40.5803H203.758C203.822 40.015 204.014 39.535 204.334 39.1403C204.665 38.735 205.086 38.4257 205.598 38.2123C206.11 37.9883 206.654 37.8763 207.23 37.8763C207.988 37.8763 208.622 38.0097 209.134 38.2763C209.646 38.543 210.03 38.9217 210.286 39.4123C210.553 39.8923 210.686 40.4683 210.686 41.1403V46.1323H209.294L209.166 44.7723C209.049 44.9857 208.91 45.1883 208.75 45.3803C208.59 45.5723 208.398 45.7377 208.174 45.8763C207.961 46.015 207.71 46.1217 207.422 46.1963C207.145 46.2817 206.836 46.3243 206.494 46.3243ZM206.798 45.0283C207.14 45.0283 207.449 44.959 207.726 44.8203C208.004 44.6817 208.238 44.495 208.43 44.2603C208.633 44.015 208.782 43.743 208.878 43.4443C208.985 43.135 209.044 42.8203 209.054 42.5003V42.4523H207.15C206.692 42.4523 206.318 42.511 206.03 42.6283C205.753 42.735 205.55 42.8843 205.422 43.0763C205.294 43.2683 205.23 43.4923 205.23 43.7483C205.23 44.015 205.289 44.2443 205.406 44.4363C205.534 44.6177 205.716 44.7617 205.95 44.8683C206.185 44.975 206.468 45.0283 206.798 45.0283ZM212.729 46.1323V34.6123H214.329V46.1323H212.729ZM216.526 46.1323V34.6123H218.126V46.1323H216.526ZM223.97 46.3243C223.202 46.3243 222.52 46.1483 221.922 45.7963C221.325 45.4443 220.856 44.9537 220.514 44.3243C220.184 43.695 220.018 42.9643 220.018 42.1323C220.018 41.279 220.184 40.5377 220.514 39.9083C220.856 39.2683 221.325 38.7723 221.922 38.4203C222.52 38.0577 223.213 37.8763 224.002 37.8763C224.792 37.8763 225.469 38.0523 226.034 38.4043C226.6 38.7563 227.037 39.2257 227.346 39.8123C227.656 40.3883 227.81 41.0283 227.81 41.7323C227.81 41.839 227.805 41.9563 227.794 42.0843C227.794 42.2017 227.789 42.335 227.778 42.4843H221.186V41.3483H226.21C226.178 40.6763 225.954 40.1537 225.538 39.7803C225.122 39.3963 224.605 39.2043 223.986 39.2043C223.549 39.2043 223.149 39.3057 222.786 39.5083C222.424 39.7003 222.13 39.9883 221.906 40.3723C221.693 40.7457 221.586 41.2203 221.586 41.7963V42.2443C221.586 42.8417 221.693 43.3483 221.906 43.7643C222.13 44.1697 222.424 44.479 222.786 44.6923C223.149 44.895 223.544 44.9963 223.97 44.9963C224.482 44.9963 224.904 44.8843 225.234 44.6603C225.565 44.4363 225.81 44.1323 225.97 43.7483H227.57C227.432 44.239 227.197 44.6817 226.866 45.0763C226.536 45.4603 226.125 45.7643 225.634 45.9883C225.154 46.2123 224.6 46.3243 223.97 46.3243ZM232.697 46.1323C232.185 46.1323 231.743 46.0523 231.369 45.8923C230.996 45.7323 230.708 45.4657 230.505 45.0923C230.303 44.719 230.201 44.2123 230.201 43.5723V39.4283H228.809V38.0683H230.201L230.393 36.0523H231.801V38.0683H234.089V39.4283H231.801V43.5883C231.801 44.047 231.897 44.3617 232.089 44.5323C232.281 44.6923 232.612 44.7723 233.081 44.7723H234.009V46.1323H232.697Z" fill="#33643F"/>
</svg>
