<svg width="646" height="329" viewBox="0 0 646 329" fill="none" xmlns="http://www.w3.org/2000/svg">
<path fill-rule="evenodd" clip-rule="evenodd" d="M280.411 42.8179C335.118 45.9962 380.419 19.0624 435.555 19.938C496.664 20.9084 565.124 27.4958 605.392 47.9786C645.484 68.3721 646.375 99.2372 644.708 126.326C643.204 150.751 606.225 171.398 596.314 195.431C585.886 220.714 617.139 250.092 584.872 271.411C553.004 292.467 484.962 293.97 432.345 303.768C382.06 313.132 333.626 333.359 280.411 328.107C224.884 322.626 206.71 289.587 157.794 276.671C114.339 265.197 44.8925 275.698 14.2327 257.822C-16.6368 239.824 12.6586 213.386 10.4492 190.764C8.611 171.943 1.10048 153.908 2.24452 135.077C3.58385 113.031 1.88974 91 17.779 70.1108C37.0921 44.7204 45.8099 6.797 104.456 0.70249C170.129 -6.1223 213.539 38.933 280.411 42.8179Z" fill="#FFE6A5" fill-opacity="0.5"/>
</svg>
